<svg xmlns="http://www.w3.org/2000/svg" xmlns:xlink="http://www.w3.org/1999/xlink" width="500" zoomAndPan="magnify" viewBox="0 0 375 374.999991" height="500" preserveAspectRatio="xMidYMid meet" version="1.0"><defs><clipPath id="id1"><path d="M 198.539062 262.460938 L 331 262.460938 L 331 356.992188 L 198.539062 356.992188 Z M 198.539062 262.460938 " clip-rule="nonzero"/></clipPath><clipPath id="id2"><path d="M 198 261 L 327.855469 261 L 327.855469 356.992188 L 198 356.992188 Z M 198 261 " clip-rule="nonzero"/></clipPath><clipPath id="id3"><path d="M 264.773438 174.082031 L 374.601562 174.082031 L 374.601562 290 L 264.773438 290 Z M 264.773438 174.082031 " clip-rule="nonzero"/></clipPath></defs><path fill="#272727" d="M 105.316406 90.421875 L 110.871094 91.894531 L 110.671875 92.65625 L 105.117188 91.183594 Z M 80 106.65625 L 80.726562 106.960938 L 78.820312 111.484375 L 78.09375 111.179688 Z M 71.976562 102.621094 L 72.589844 103.113281 L 69.605469 106.832031 L 68.992188 106.339844 Z M 67.382812 97.578125 L 67.789062 98.253906 L 63.53125 100.816406 L 63.121094 100.136719 Z M 57.949219 94.21875 L 63.195312 92.359375 L 63.457031 93.105469 L 58.210938 94.964844 Z M 86.261719 106.402344 L 87.050781 106.402344 L 87.050781 111.328125 L 86.261719 111.328125 Z M 103.660156 95.132812 L 108.925781 97.558594 L 108.597656 98.277344 L 103.332031 95.851562 Z M 94.273438 104.261719 L 96.027344 108.613281 L 95.296875 108.910156 L 93.546875 104.558594 Z M 99.277344 100.84375 L 102.488281 104.925781 L 101.871094 105.414062 L 98.65625 101.332031 Z M 117.847656 166.945312 L 113.820312 173.292969 L 113.15625 172.871094 L 117.179688 166.523438 Z M 151.058594 174.847656 C 150.765625 176.566406 136.671875 215.269531 120.378906 228.476562 L 119.882812 227.863281 C 135.660156 215.074219 150.007812 176.351562 150.285156 174.714844 C 150.527344 173.292969 146.4375 154.992188 143.628906 143.035156 L 143.613281 142.988281 L 143.617188 142.933594 C 143.730469 139.453125 144.664062 112.058594 145.304688 104.808594 L 133.382812 122.097656 C 132.804688 124.492188 124.039062 160.765625 121.34375 165.191406 C 121.480469 166.601562 121.949219 171.339844 122.453125 176.773438 C 126.316406 162.132812 141.964844 161.953125 142.140625 161.953125 C 142.140625 161.953125 142.140625 161.953125 142.144531 161.953125 L 142.140625 162.742188 C 141.449219 162.742188 125.210938 162.9375 122.695312 179.445312 C 122.703125 179.523438 122.710938 179.609375 122.71875 179.691406 C 130.054688 167.5625 141.320312 172.667969 141.4375 172.722656 L 141.101562 173.441406 C 140.640625 173.222656 129.785156 168.335938 122.84375 181.066406 C 123.53125 188.769531 124.144531 196.492188 123.9375 197.429688 C 123.511719 199.355469 117.222656 203.164062 116.503906 203.59375 L 116.101562 202.914062 C 118.691406 201.363281 122.902344 198.460938 123.167969 197.261719 C 123.339844 196.480469 122.789062 189.332031 122.050781 181.105469 L 121.945312 181.054688 C 121.976562 181 122.003906 180.953125 122.03125 180.898438 C 121.5625 175.605469 121.015625 169.882812 120.546875 165.132812 L 120.53125 164.992188 L 120.613281 164.871094 C 123.15625 161.132812 132.539062 122.234375 132.632812 121.839844 L 132.691406 121.710938 L 145.429688 103.242188 C 143.441406 101.550781 120.644531 92.789062 105.433594 87.179688 L 105.707031 86.441406 C 115.027344 89.878906 145.507812 101.230469 146.261719 103.023438 C 146.316406 103.15625 146.316406 103.292969 146.261719 103.417969 C 145.832031 104.582031 144.917969 127.652344 144.40625 142.90625 C 145.179688 146.203125 151.40625 172.824219 151.058594 174.847656 Z M 50.796875 179.886719 C 46.082031 181.390625 41.839844 181.054688 38.179688 178.878906 C 29.988281 174.003906 27.121094 161.367188 26.773438 159.683594 C 31.1875 152.246094 36.207031 147.550781 36.953125 146.871094 C 44.230469 146.210938 49.957031 147.65625 53.984375 151.152344 C 59.058594 155.558594 59.734375 161.882812 59.804688 162.746094 C 59.34375 163.675781 55.691406 170.980469 50.796875 179.886719 Z M 54.511719 150.5625 C 50.292969 146.894531 44.316406 145.390625 36.75 146.09375 L 36.621094 146.105469 L 36.527344 146.191406 C 36.433594 146.273438 31.816406 150.371094 27.355469 157.261719 C 24.339844 157.964844 16.824219 169.902344 15.3125 172.359375 L 15.980469 172.769531 C 18.984375 167.914062 23.976562 160.636719 26.523438 158.582031 C 22.371094 165.359375 18.605469 174.527344 19.078125 185.074219 L 19.867188 185.039062 C 19.441406 175.535156 22.523438 167.167969 26.191406 160.699219 C 26.992188 164.144531 30.054688 174.960938 37.773438 179.554688 C 40.070312 180.921875 42.574219 181.605469 45.265625 181.605469 C 46.867188 181.605469 48.535156 181.347656 50.261719 180.867188 C 41.800781 196.1875 29.960938 215.640625 24.289062 215.859375 C 14.417969 216.25 9.808594 207.453125 5.554688 193.160156 C 1.03125 177.957031 13.433594 159.070312 13.558594 158.882812 L 13.636719 158.765625 L 13.621094 158.632812 C 12.328125 142.050781 10.300781 110.183594 11.691406 105.996094 C 29.371094 106.359375 38.058594 142.667969 38.144531 143.035156 L 38.914062 142.859375 C 38.558594 141.339844 30.171875 106.285156 12.261719 105.222656 C 16.3125 101.8125 42.617188 92.941406 60.320312 87.515625 L 60.089844 86.757812 C 55.289062 88.234375 13.097656 101.273438 11.066406 105.421875 C 9.0625 109.511719 12.5625 155.167969 12.828125 158.558594 C 11.777344 160.1875 0.359375 178.457031 4.800781 193.382812 C 9.066406 207.730469 13.746094 216.660156 23.664062 216.660156 C 23.878906 216.660156 24.097656 216.652344 24.316406 216.648438 C 34.101562 216.269531 59.480469 165.175781 60.558594 163.003906 L 60.601562 162.910156 L 60.601562 162.808594 C 60.585938 162.511719 60.191406 155.503906 54.511719 150.5625 " fill-opacity="1" fill-rule="nonzero"/><path fill="#f6f6e9" d="M 69.800781 78.273438 L 60.207031 87.136719 C 60.207031 87.136719 71.347656 112.054688 89.128906 106.34375 C 106.914062 100.636719 105.570312 86.8125 105.570312 86.8125 L 95.421875 80.910156 Z M 47.453125 142.34375 C 47.453125 142.34375 44.738281 135.996094 39.300781 140.929688 C 36.523438 143.457031 34.851562 146.308594 33.878906 148.496094 C 32.945312 150.589844 33.292969 153.023438 34.746094 154.792969 C 38.84375 159.769531 48.164062 169.320312 55.484375 163.597656 C 65.148438 156.042969 62.855469 152.617188 47.453125 142.34375 Z M 114.894531 210.511719 C 128.050781 225.285156 129.53125 307.570312 129.53125 307.570312 L 38.191406 330.453125 C 38.191406 330.453125 28.460938 270.683594 27.660156 250.492188 C 26.855469 230.296875 39.199219 210.511719 39.199219 210.511719 L 114.894531 210.511719 " fill-opacity="1" fill-rule="nonzero"/><path fill="#cbddd1" d="M 52.453125 157.535156 L 59.65625 144.039062 C 82.964844 133.761719 88.289062 125.503906 86.378906 124.472656 C 84.464844 123.445312 73.863281 129.632812 73.863281 129.632812 C 88.882812 120.925781 92.933594 118.960938 91.121094 116.589844 C 89.3125 114.210938 83.15625 118.449219 83.15625 118.449219 C 92.015625 113.917969 92.953125 111.046875 90.808594 110.191406 C 88.574219 109.296875 68.257812 118.449219 68.257812 118.449219 C 68.257812 118.449219 79.332031 107.972656 81.949219 105.199219 C 84.5625 102.421875 81.542969 98.703125 78.828125 101.425781 C 76.109375 104.144531 55.273438 121.472656 55.273438 121.472656 C 54.570312 120.769531 57.789062 114.421875 59.199219 110.390625 C 60.609375 106.359375 56.882812 100.015625 54.96875 105.199219 C 53.058594 110.378906 47.117188 119.660156 46.011719 123.589844 C 44.902344 127.515625 46.011719 139.707031 46.011719 139.707031 L 40.679688 148.472656 C 45.109375 159.148438 52.453125 157.535156 52.453125 157.535156 Z M 108.660156 56.792969 C 107.742188 60.621094 103.71875 76.632812 101.03125 78.210938 C 99.902344 78.878906 97.078125 78.601562 96.273438 78.777344 C 94.886719 79.074219 95.644531 80.796875 95.367188 82.203125 C 95.175781 83.195312 94.570312 84.066406 93.707031 84.585938 C 90.480469 86.507812 81.953125 89.902344 71.351562 80.640625 C 70.664062 80.039062 70.214844 79.203125 70.121094 78.292969 L 68.574219 63.894531 C 68.421875 62.507812 67.488281 61.308594 66.164062 60.886719 C 64.402344 60.328125 61.816406 58.835938 59.378906 54.898438 C 56.832031 50.769531 58.371094 47.402344 61.011719 46.085938 C 61.011719 46.085938 70.105469 51.679688 68.898438 47.75 C 67.691406 43.820312 71.207031 28.707031 71.207031 28.707031 L 68.898438 26.292969 L 72.71875 27.699219 C 82.585938 21.558594 100.398438 25.890625 103.820312 26.589844 C 107.25 27.292969 108.109375 33.960938 108.109375 33.960938 L 108.101562 33.972656 C 108.296875 35.507812 108.347656 37.085938 108.140625 38.691406 C 107.109375 46.605469 108.238281 53.09375 108.6875 55.230469 C 108.796875 55.753906 108.789062 56.28125 108.660156 56.792969 " fill-opacity="1" fill-rule="nonzero"/><path fill="#97b690" d="M 102.179688 63.445312 C 102.179688 63.445312 96.511719 67.207031 83.691406 64.117188 C 83.691406 64.117188 90.738281 71.035156 96.109375 69.691406 C 101.476562 68.351562 102.179688 63.445312 102.179688 63.445312 Z M 87.785156 46.773438 C 87.785156 46.773438 82.515625 42.84375 75.707031 45.296875 C 75.707031 45.296875 76.578125 49.769531 81.078125 50.535156 C 87.785156 51.675781 87.785156 46.773438 87.785156 46.773438 Z M 102.179688 49.730469 C 97.785156 50.738281 97.71875 46.640625 97.71875 46.640625 C 101.140625 42.476562 106.640625 43.886719 106.640625 43.886719 C 106.640625 43.886719 106.578125 48.722656 102.179688 49.730469 " fill-opacity="1" fill-rule="nonzero"/><path fill="#272727" d="M 85.191406 128.652344 L 84.785156 127.976562 C 84.550781 128.113281 83.792969 128.46875 83.375 128.273438 C 83.308594 128.242188 83.101562 128.148438 83.023438 127.671875 C 82.828125 126.496094 85.710938 125.617188 86.738281 125.402344 L 86.574219 124.628906 C 86.09375 124.730469 81.894531 125.675781 82.246094 127.800781 C 82.371094 128.535156 82.75 128.855469 83.042969 128.988281 C 83.246094 129.082031 83.460938 129.121094 83.671875 129.121094 C 84.386719 129.121094 85.09375 128.710938 85.191406 128.652344 Z M 88.652344 120.449219 C 88.621094 120.449219 87.910156 120.429688 87.910156 119.222656 C 87.910156 118.167969 90.332031 117.382812 91.179688 117.191406 L 91.003906 116.417969 C 90.605469 116.507812 87.121094 117.351562 87.121094 119.222656 C 87.121094 120.804688 88.117188 121.234375 88.644531 121.238281 Z M 88.953125 115.363281 L 88.921875 114.574219 C 88.914062 114.574219 88.222656 114.59375 87.832031 114.214844 C 87.648438 114.039062 87.558594 113.800781 87.558594 113.480469 C 87.558594 112.601562 89.695312 111.523438 91.214844 111.035156 L 90.96875 110.285156 C 90.542969 110.421875 86.773438 111.683594 86.773438 113.480469 C 86.773438 114.019531 86.945312 114.457031 87.285156 114.789062 C 87.851562 115.328125 88.6875 115.363281 88.898438 115.363281 C 88.929688 115.363281 88.945312 115.363281 88.953125 115.363281 Z M 81.691406 105.9375 L 81.53125 105.160156 C 81.472656 105.175781 80.074219 105.453125 79.6875 104.335938 C 79.390625 103.464844 80.941406 101.847656 81.988281 101.03125 L 81.503906 100.410156 C 81.179688 100.660156 78.363281 102.914062 78.941406 104.589844 C 79.324219 105.703125 80.339844 105.992188 81.117188 105.992188 C 81.332031 105.992188 81.53125 105.96875 81.691406 105.9375 Z M 56.507812 108.402344 C 58.636719 106.71875 57.136719 103.246094 57.074219 103.097656 L 56.351562 103.414062 C 56.363281 103.445312 57.671875 106.476562 56.015625 107.78125 C 55.4375 108.242188 54.9375 108.4375 54.570312 108.347656 C 54.230469 108.261719 54.085938 107.949219 54.078125 107.9375 L 53.351562 108.246094 C 53.460938 108.496094 53.789062 108.960938 54.367188 109.109375 C 54.492188 109.140625 54.621094 109.15625 54.753906 109.15625 C 55.28125 109.15625 55.871094 108.902344 56.507812 108.402344 Z M 59.84375 144.382812 L 59.464844 143.695312 L 57.800781 144.613281 L 58.183594 145.304688 Z M 88.550781 121.386719 L 88.140625 120.714844 L 70.46875 131.53125 L 70.878906 132.203125 Z M 86.855469 116.84375 L 86.453125 116.164062 L 68.058594 127.027344 L 68.457031 127.703125 Z M 65.421875 121.355469 L 64.914062 120.75 L 68.003906 118.148438 L 68.511719 118.753906 L 65.421875 121.355469 " fill-opacity="1" fill-rule="nonzero"/><path fill="#272727" d="M 125.824219 248.816406 C 122.097656 218.96875 115.480469 210.597656 115.199219 210.261719 L 114.589844 210.761719 C 114.660156 210.84375 121.34375 219.292969 125.042969 248.914062 C 128.753906 278.621094 128.726562 306.585938 128.726562 306.867188 L 129.515625 306.867188 C 129.515625 306.589844 129.542969 278.578125 125.824219 248.816406 Z M 54.917969 212.5 L 38.25 232.714844 L 40.011719 235.417969 L 57.339844 214.570312 Z M 54.820312 211.375 L 58.441406 214.472656 L 39.933594 236.742188 L 37.269531 232.660156 Z M 110.300781 256.089844 L 86.726562 273.558594 L 107.492188 264.480469 L 107.808594 265.203125 L 84.109375 275.566406 L 88 318.039062 L 87.214844 318.113281 L 83.277344 275.136719 L 93.566406 267.511719 L 93.566406 215.882812 L 94.355469 215.882812 L 94.355469 266.925781 L 109.828125 255.457031 L 110.300781 256.089844 " fill-opacity="1" fill-rule="nonzero"/><path fill="#97b690" d="M 98.089844 203.253906 L 98.089844 215.738281 C 92.230469 216.21875 86.046875 216.320312 79.96875 216.210938 L 79.96875 203.253906 L 98.089844 203.253906 " fill-opacity="1" fill-rule="nonzero"/><path fill="#272727" d="M 95.367188 205.605469 L 83.691406 205.605469 L 83.691406 213.363281 L 95.367188 213.363281 Z M 98.089844 203.253906 L 98.089844 215.738281 C 104.800781 215.1875 111.082031 214.152344 116.304688 212.414062 L 116.304688 203.253906 Z M 39.070312 203.253906 L 79.96875 203.253906 L 79.96875 216.210938 C 58.390625 215.769531 38.101562 212.414062 38.101562 212.414062 L 39.070312 203.253906 " fill-opacity="1" fill-rule="nonzero"/><path fill="#272727" d="M 91.066406 97.765625 C 91.066406 96.941406 90.589844 96.246094 90.019531 96.246094 C 89.453125 96.246094 88.972656 96.941406 88.972656 97.765625 C 88.972656 98.589844 89.453125 99.285156 90.019531 99.285156 C 90.589844 99.285156 91.066406 98.589844 91.066406 97.765625 Z M 91.855469 97.765625 C 91.855469 99.035156 91.03125 100.074219 90.019531 100.074219 C 89.011719 100.074219 88.1875 99.035156 88.1875 97.765625 C 88.1875 96.492188 89.011719 95.457031 90.019531 95.457031 C 91.03125 95.457031 91.855469 96.492188 91.855469 97.765625 Z M 102.238281 85.1875 L 97.289062 101.242188 L 85.855469 89.054688 L 88.34375 106.53125 L 87.5625 106.640625 L 85.046875 88.96875 L 75.359375 103.847656 L 62.035156 85.859375 L 62.671875 85.390625 L 75.316406 102.464844 L 85.234375 87.238281 L 96.9375 99.710938 L 101.484375 84.957031 L 102.238281 85.1875 " fill-opacity="1" fill-rule="nonzero"/><path fill="#272727" d="M 112.328125 25.039062 C 111.042969 29.527344 108.109375 33.960938 108.109375 33.960938 C 108.109375 33.960938 107.25 27.292969 103.820312 26.589844 C 100.398438 25.890625 82.585938 21.558594 72.71875 27.699219 L 68.898438 26.292969 L 71.207031 28.707031 C 71.207031 28.707031 67.691406 43.820312 68.898438 47.75 C 70.105469 51.679688 61.011719 46.085938 61.011719 46.085938 C 58.464844 41.300781 53.6875 31.0625 56.417969 25.984375 C 59.933594 19.433594 66.683594 21.960938 67.070312 22.109375 C 66.832031 21.9375 64.394531 19.835938 73.722656 13.089844 C 77.75 10.1875 82.460938 9.867188 87.363281 10.613281 C 76.453125 13.660156 71.730469 23.886719 71.671875 24.015625 L 72.394531 24.335938 C 72.453125 24.207031 77.539062 13.230469 89.347656 10.964844 C 92.039062 11.511719 94.769531 12.316406 97.460938 13.128906 C 86.902344 15.402344 78.574219 20.949219 78.457031 21.027344 L 78.894531 21.679688 C 79.019531 21.597656 87.996094 15.621094 99.050781 13.609375 C 102.191406 14.5625 105.253906 15.464844 108.109375 15.917969 C 112.855469 16.664062 113.4375 20.230469 112.59375 24 C 111.515625 22.507812 110.164062 21.34375 108.546875 20.519531 C 101.640625 17.007812 92.417969 20.828125 92.03125 20.992188 L 92.335938 21.71875 C 92.425781 21.679688 101.609375 17.878906 108.1875 21.222656 C 109.886719 22.085938 111.261719 23.375 112.328125 25.039062 Z M 85.089844 64.835938 C 87.257812 66.667969 92.148438 70.269531 96.011719 69.308594 C 99.796875 68.363281 101.140625 65.601562 101.585938 64.207031 C 99.691406 65.078125 94.433594 66.796875 85.089844 64.835938 Z M 94.640625 70.261719 C 89.453125 70.261719 83.683594 64.660156 83.417969 64.398438 L 82.398438 63.398438 L 83.785156 63.734375 C 96.289062 66.746094 101.90625 63.152344 101.960938 63.117188 L 102.695312 62.632812 L 102.570312 63.5 C 102.5625 63.554688 101.765625 68.683594 96.203125 70.074219 C 95.691406 70.203125 95.171875 70.261719 94.640625 70.261719 Z M 91.058594 60.371094 L 90.753906 59.640625 L 93.304688 58.566406 L 93.609375 59.292969 Z M 95.855469 60.644531 L 95.351562 60.035156 C 96.359375 59.199219 97.960938 57.554688 97.960938 56.714844 C 97.960938 55.8125 95.851562 51.714844 94.519531 49.339844 L 95.207031 48.957031 C 95.570312 49.601562 98.75 55.308594 98.75 56.714844 C 98.75 58.199219 96.152344 60.398438 95.855469 60.644531 Z M 95.542969 82.96875 L 94.761719 82.863281 L 95.222656 79.453125 C 93.234375 79.074219 84.035156 77.253906 79.296875 75.003906 C 73.953125 72.464844 71.984375 64.660156 71.902344 64.332031 L 72.667969 64.140625 C 72.6875 64.21875 74.632812 71.914062 79.636719 74.289062 C 84.761719 76.722656 95.625 78.726562 95.734375 78.746094 L 96.105469 78.8125 Z M 66.589844 53.242188 C 64.050781 49.523438 60.261719 51.054688 60.222656 51.070312 L 59.917969 50.34375 C 59.960938 50.328125 64.34375 48.550781 67.242188 52.796875 Z M 105.546875 36.851562 L 106.824219 39.273438 C 101.945312 37.640625 97.519531 41.066406 97.519531 41.066406 L 97.519531 38.914062 C 101.273438 34.753906 105.546875 36.851562 105.546875 36.851562 Z M 87.660156 41.335938 C 85.386719 38.914062 75.707031 40.328125 75.707031 40.328125 L 77.71875 38.042969 C 85.101562 35.359375 88.023438 39.585938 88.023438 39.585938 Z M 80.585938 50.433594 C 82.347656 43.753906 87.660156 47.597656 87.660156 47.597656 C 86.496094 52.117188 80.585938 50.433594 80.585938 50.433594 Z M 75.707031 45.597656 L 75.707031 44.761719 C 82.554688 41.910156 88.023438 46.773438 88.023438 46.773438 C 81.3125 42.941406 75.707031 45.597656 75.707031 45.597656 Z M 107.046875 43.65625 C 107.046875 43.65625 105.769531 42.542969 102.882812 43.183594 C 100 43.820312 97.519531 46.539062 97.519531 46.539062 C 97.519531 46.539062 103.21875 42.976562 106.777344 44.191406 Z M 100.601562 49.878906 C 101.105469 43.882812 106.3125 45.742188 106.3125 45.742188 C 105.210938 50.214844 100.601562 49.878906 100.601562 49.878906 " fill-opacity="1" fill-rule="nonzero"/><path fill="#457d58" d="M 177.074219 131.019531 C 166.152344 129.070312 158.410156 110.746094 155.050781 101.085938 C 154.144531 103.691406 153.546875 106.554688 153.3125 109.703125 C 150.5 147.984375 192.496094 200.167969 192.496094 200.167969 L 196.144531 198.96875 Z M 340.582031 184.835938 L 318.199219 194.722656 C 318.199219 194.722656 296.453125 172.785156 291.625 160.082031 C 291.625 160.082031 280.261719 154.449219 272.527344 149.453125 C 274.886719 133.8125 288.542969 126.339844 297.605469 123.066406 C 305.605469 136.003906 311.953125 147.683594 311.953125 147.683594 C 311.953125 147.683594 332.367188 161.652344 340.582031 184.835938 " fill-opacity="1" fill-rule="nonzero"/><path fill="#272727" d="M 291.878906 47.058594 C 288.371094 53.671875 284.484375 55.804688 282.421875 56.492188 C 280.332031 52.207031 289.070312 54.160156 289.003906 41.375 C 288.984375 37.226562 288.167969 33.207031 286.738281 29.632812 C 290.34375 33.597656 295.265625 40.667969 291.878906 47.058594 Z M 246.644531 22.941406 L 245.859375 23.03125 C 245.085938 16.058594 252.371094 13.648438 252.445312 13.625 L 252.6875 14.375 C 252.410156 14.464844 245.941406 16.621094 246.644531 22.941406 Z M 241.449219 22.507812 L 240.6875 22.308594 C 240.695312 22.269531 241.609375 18.582031 239.449219 15.445312 C 237.761719 13.003906 234.679688 11.519531 230.292969 11.035156 L 230.382812 10.25 C 235.011719 10.761719 238.277344 12.359375 240.101562 15.007812 C 242.46875 18.441406 241.492188 22.339844 241.449219 22.507812 Z M 209.386719 11.304688 C 211.078125 9.238281 213.5625 7.234375 217.191406 5.628906 C 227.324219 1.15625 232.160156 5.152344 233.847656 7.222656 C 232.425781 7.351562 230.980469 7.238281 229.570312 6.855469 C 223.351562 5.160156 215.453125 6.914062 209.386719 11.304688 Z M 195.183594 52.410156 C 190.890625 57.15625 189.816406 62.585938 190.082031 67.429688 C 189.8125 65.839844 189.710938 64.214844 189.785156 62.582031 C 189.988281 58.199219 191.484375 54.421875 193.683594 52.726562 C 197.003906 50.167969 199.496094 46.160156 200.921875 43.464844 C 200.441406 45.703125 198.914062 48.289062 195.183594 52.410156 Z M 285.761719 27.457031 C 282.578125 21.082031 277.304688 16.585938 271.105469 16.214844 C 260.949219 15.613281 263.441406 9.167969 252.566406 4.734375 C 246.742188 2.355469 241.976562 3.800781 238.808594 5.648438 C 237.53125 6.394531 236.152344 6.871094 234.734375 7.109375 C 233.160156 5.042969 227.941406 0.0234375 216.875 4.910156 C 211.796875 7.148438 208.875 10.167969 207.210938 13.070312 C 203.546875 16.386719 200.871094 20.800781 200.191406 26.089844 C 199.109375 34.457031 200.949219 37.953125 201.085938 41.351562 C 200.035156 43.585938 197.199219 49.019531 193.203125 52.097656 C 190.828125 53.933594 189.210938 57.9375 189 62.550781 C 188.820312 66.398438 189.554688 70.136719 191.074219 73.480469 C 192.269531 77.871094 194.050781 80.890625 194.050781 80.890625 L 202.070312 82.949219 C 200.015625 78.324219 193.507812 62.007812 201.433594 57.378906 C 210.226562 52.246094 213.863281 40.890625 214.089844 34.9375 C 214.128906 33.929688 214.101562 32.859375 214.070312 31.722656 C 213.925781 26.089844 213.746094 19.078125 222.28125 15.382812 C 225.109375 14.160156 227.511719 14.128906 229.425781 15.292969 C 233.152344 17.558594 233.613281 23.496094 233.628906 23.746094 L 232.84375 23.804688 C 232.84375 23.746094 232.390625 18.015625 229.011719 15.964844 C 227.335938 14.945312 225.171875 14.992188 222.589844 16.109375 C 214.546875 19.589844 214.710938 26.023438 214.855469 31.703125 C 214.886719 32.847656 214.914062 33.933594 214.878906 34.96875 C 214.644531 41.089844 210.894531 52.769531 201.832031 58.0625 C 194.207031 62.511719 201.492188 79.753906 203.050781 83.203125 L 206.757812 84.15625 C 206.265625 79.355469 205.582031 70.867188 206.34375 66.605469 C 207.457031 60.34375 214.394531 59.953125 214.464844 59.949219 L 214.5 60.738281 C 214.242188 60.753906 208.125 61.109375 207.121094 66.746094 C 206.371094 70.945312 207.09375 79.652344 207.574219 84.363281 L 273.675781 101.339844 C 272.636719 97.734375 270.546875 89.316406 270.710938 80.582031 C 270.847656 73.457031 273.941406 70.722656 276.199219 68.71875 C 277.722656 67.375 278.820312 66.40625 278.746094 64.640625 C 278.667969 62.730469 277.753906 61.386719 276.703125 59.828125 C 275.1875 57.585938 273.46875 55.050781 274.015625 50.246094 C 274.347656 47.347656 275.863281 44.835938 277.328125 42.40625 C 280 37.96875 282.527344 33.777344 278.308594 27.414062 C 276.808594 25.148438 274.785156 23.78125 272.304688 23.347656 C 265.710938 22.203125 257.902344 27.957031 257.824219 28.015625 L 257.351562 27.382812 C 257.664062 27.148438 264.707031 21.96875 271.347656 22.449219 C 261.445312 18.203125 250.726562 24.484375 250.609375 24.554688 L 250.203125 23.875 C 250.332031 23.800781 263.308594 16.175781 274.214844 23.058594 C 276.113281 23.777344 277.710938 25.085938 278.964844 26.980469 C 283.457031 33.757812 280.683594 38.359375 278.003906 42.8125 C 276.582031 45.171875 275.113281 47.613281 274.800781 50.335938 C 274.285156 54.847656 275.847656 57.15625 277.355469 59.382812 C 278.429688 60.972656 279.445312 62.476562 279.535156 64.605469 C 279.621094 66.746094 278.28125 67.9375 276.722656 69.3125 C 274.453125 71.320312 271.628906 73.820312 271.5 80.597656 C 271.328125 89.621094 273.597656 98.304688 274.5625 101.566406 L 280.347656 103.054688 C 280.347656 103.054688 273.300781 90.761719 282.765625 81.820312 C 291.921875 73.167969 285.441406 61.84375 282.8125 57.214844 C 285.066406 56.441406 289 54.167969 292.574219 47.429688 C 296.789062 39.484375 289.335938 30.917969 285.761719 27.457031 " fill-opacity="1" fill-rule="nonzero"/><path fill="#97b690" d="M 285.382812 201.304688 L 232.726562 189.492188 L 240.730469 170.347656 C 240.730469 170.347656 243.574219 154.144531 236.394531 153.988281 C 232.972656 153.910156 228.410156 157.390625 227.199219 165.414062 C 225.871094 174.230469 228.074219 187.679688 228.074219 187.679688 L 198.820312 198.085938 L 196.144531 198.96875 L 177.074219 131.019531 C 166.152344 129.070312 158.410156 110.746094 155.050781 101.085938 C 165.035156 72.054688 212.5 75.449219 212.5 75.449219 L 256.570312 85.089844 C 256.570312 85.089844 274.3125 88.949219 286.585938 106.277344 C 290.316406 111.542969 294.117188 117.421875 297.605469 123.066406 C 288.542969 126.339844 274.886719 133.8125 272.527344 149.453125 C 269.71875 147.636719 267.386719 145.902344 266.25 144.558594 L 255.921875 163.5 C 255.921875 163.5 278.734375 182.898438 285.382812 201.304688 " fill-opacity="1" fill-rule="nonzero"/><path fill="#f6f6e9" d="M 225.085938 152.917969 L 203.042969 143.078125 L 215.117188 109.898438 L 231.734375 114.4375 L 225.085938 152.917969 " fill-opacity="1" fill-rule="nonzero"/><path fill="#272727" d="M 255.730469 163.027344 L 252.28125 161.964844 L 252.050781 162.722656 L 255.726562 163.851562 C 256.898438 164.859375 278.074219 183.265625 284.761719 200.761719 L 233.269531 189.210938 L 241.09375 170.5 L 241.113281 170.414062 C 241.199219 169.960938 243.027344 159.28125 239.667969 155.183594 C 238.828125 154.160156 237.726562 153.625 236.402344 153.59375 C 232.523438 153.53125 227.992188 157.515625 226.8125 165.351562 C 225.601562 173.367188 227.308594 185.296875 227.632812 187.414062 L 198.695312 197.710938 L 196.414062 198.464844 L 177.453125 130.914062 C 173.347656 115.003906 191.25 101.535156 191.429688 101.40625 L 190.964844 100.769531 C 190.78125 100.90625 172.921875 114.34375 176.554688 130.496094 C 175.0625 130.144531 173.628906 129.488281 172.257812 128.582031 L 175.425781 120.203125 L 174.691406 119.921875 L 171.589844 128.121094 C 168.9375 126.183594 166.535156 123.347656 164.410156 120.113281 L 170.929688 112.375 L 170.328125 111.867188 L 163.960938 119.417969 C 162.164062 116.589844 160.570312 113.496094 159.195312 110.464844 L 164.96875 104.6875 L 164.410156 104.128906 L 158.851562 109.691406 C 157.492188 106.621094 156.355469 103.636719 155.46875 101.085938 C 165.335938 72.8125 212 75.808594 212.417969 75.832031 L 256.484375 85.476562 C 256.664062 85.515625 274.226562 89.511719 286.265625 106.507812 C 289.539062 111.128906 293.15625 116.628906 297.011719 122.859375 C 295.390625 123.460938 293.570312 124.222656 291.664062 125.175781 L 287.285156 120.792969 L 286.726562 121.351562 L 290.921875 125.550781 C 288.269531 126.925781 285.488281 128.675781 282.894531 130.855469 L 277.902344 126.039062 L 277.359375 126.609375 L 282.289062 131.371094 C 279.808594 133.539062 277.539062 136.128906 275.738281 139.191406 L 270.492188 135.863281 L 270.070312 136.53125 L 275.34375 139.875 C 273.898438 142.496094 272.808594 145.453125 272.238281 148.789062 C 269.425781 146.945312 267.519531 145.445312 266.566406 144.316406 L 261.554688 136.488281 L 260.890625 136.914062 L 265.796875 144.574219 Z M 272.3125 149.785156 L 272.828125 150.113281 L 272.917969 149.511719 C 275.292969 133.769531 289.488281 126.414062 297.738281 123.433594 L 298.195312 123.269531 L 297.941406 122.855469 C 293.976562 116.441406 290.265625 110.789062 286.910156 106.050781 C 274.683594 88.796875 256.832031 84.742188 256.652344 84.707031 L 212.527344 75.054688 C 212.050781 75.019531 164.644531 71.976562 154.675781 100.957031 L 154.632812 101.085938 L 154.679688 101.214844 C 158.277344 111.574219 165.917969 129.183594 176.757812 131.359375 L 195.878906 199.476562 L 198.953125 198.457031 L 228.515625 187.9375 L 228.460938 187.613281 C 228.441406 187.480469 226.285156 174.128906 227.589844 165.472656 C 228.703125 158.085938 232.863281 154.304688 236.382812 154.382812 C 237.484375 154.410156 238.359375 154.832031 239.058594 155.6875 C 242.089844 159.378906 240.472656 169.492188 240.347656 170.238281 L 232.179688 189.773438 L 285.996094 201.847656 L 285.75 201.171875 C 279.515625 183.898438 258.902344 165.570312 256.421875 163.410156 L 266.335938 145.234375 C 267.488281 146.433594 269.496094 147.960938 272.3125 149.785156 " fill-opacity="1" fill-rule="nonzero"/><path fill="#457d58" d="M 270.984375 61.847656 C 269.878906 67.792969 262.828125 71.824219 260.71875 71.527344 C 260.71875 71.527344 255.890625 78.878906 252.5625 81.597656 L 258 86.332031 C 258 86.332031 245.214844 106.878906 233.742188 104.96875 L 231.734375 114.4375 C 231.734375 114.4375 219.046875 117.359375 215.117188 109.898438 L 218.445312 101.039062 C 218.445312 101.039062 207.066406 95.097656 212.5 75.449219 L 217.035156 74.445312 C 217.035156 74.445312 215.726562 71.722656 215.519531 65.78125 C 215.519531 65.78125 215.496094 65.269531 215.484375 64.378906 C 210.316406 61.746094 210.824219 51.28125 212.90625 50.066406 C 214.363281 49.214844 215.601562 50.492188 216.351562 51.636719 C 217.023438 47.046875 218.191406 41.941406 220.21875 37.308594 L 220.21875 37.773438 C 220.21875 37.773438 224.28125 32.835938 229.308594 30.320312 C 234.347656 27.800781 257.800781 31.730469 261.023438 42.511719 C 264.242188 53.289062 262.964844 60.34375 262.964844 60.34375 L 265.351562 58.632812 C 265.351562 58.632812 272.09375 55.910156 270.984375 61.847656 " fill-opacity="1" fill-rule="nonzero"/><path fill="#97b690" d="M 231.929688 59.9375 C 231.929688 59.9375 230.222656 51.273438 223.679688 52.179688 C 217.132812 53.089844 224.582031 66.550781 231.929688 59.9375 Z M 242.5 61.953125 C 242.5 61.953125 247.933594 54.195312 254.074219 58.527344 C 260.21875 62.859375 248.542969 72.125 242.5 61.953125 " fill-opacity="1" fill-rule="nonzero"/><path fill="#272727" d="M 258.421875 40.824219 C 259.324219 41.207031 260.003906 42.28125 259.847656 43.070312 C 259.710938 43.789062 258.910156 43.957031 258.265625 43.96875 C 257.511719 43.980469 257.039062 43.78125 256.792969 43.359375 C 256.464844 42.804688 256.535156 41.921875 256.777344 40.976562 C 257.296875 40.640625 257.859375 40.582031 258.421875 40.824219 Z M 233.238281 23.773438 C 226.929688 26.066406 222.851562 31.289062 220.21875 37.308594 L 219.148438 39.132812 C 219.148438 39.132812 223.726562 33.519531 228.472656 30.773438 C 228.601562 30.886719 228.738281 31.003906 228.882812 31.121094 C 228.414062 32.496094 228.019531 34.433594 228.765625 35.917969 C 229.304688 37 230.351562 37.664062 231.871094 37.894531 L 231.992188 37.117188 C 230.738281 36.925781 229.886719 36.402344 229.46875 35.566406 C 228.894531 34.425781 229.160156 32.875 229.535156 31.664062 C 231.574219 33.347656 234.308594 35.5 236.664062 36.960938 C 236.3125 37.894531 236.121094 38.957031 236.398438 39.964844 C 236.765625 41.300781 237.875 42.289062 239.6875 42.90625 L 239.941406 42.160156 C 238.390625 41.632812 237.457031 40.828125 237.160156 39.757812 C 236.949219 38.984375 237.085938 38.144531 237.355469 37.378906 C 237.945312 37.71875 238.5 38.003906 239.003906 38.210938 C 239.210938 39.160156 239.785156 40.886719 241.273438 41.976562 C 242.140625 42.609375 243.183594 42.929688 244.382812 42.929688 C 244.929688 42.929688 245.511719 42.859375 246.128906 42.730469 L 245.964844 41.953125 C 244.242188 42.332031 242.816406 42.125 241.742188 41.339844 C 240.679688 40.566406 240.152344 39.371094 239.898438 38.511719 C 243.300781 39.339844 252.148438 38.476562 257.113281 37.886719 C 256.769531 38.59375 256.359375 39.527344 256.085938 40.5 C 255.8125 40.714844 255.539062 41.003906 255.273438 41.382812 C 254.542969 42.417969 254.339844 43.457031 254.671875 44.46875 C 255.519531 47.089844 259.707031 48.535156 259.886719 48.59375 L 260.136719 47.847656 C 260.097656 47.832031 256.148438 46.46875 255.417969 44.222656 C 255.183594 43.503906 255.308594 42.78125 255.796875 42.015625 C 255.75 42.671875 255.828125 43.28125 256.113281 43.761719 C 256.511719 44.441406 257.230469 44.773438 258.28125 44.757812 C 260.132812 44.71875 260.535156 43.671875 260.621094 43.226562 C 260.847656 42.0625 259.984375 40.632812 258.730469 40.097656 C 258.40625 39.957031 257.796875 39.78125 257.089844 39.972656 C 257.371094 39.179688 257.726562 38.414062 258.03125 37.820312 C 259.445312 39.207031 260.503906 40.769531 261.023438 42.511719 C 264.242188 53.289062 262.964844 60.34375 262.964844 60.34375 L 265.351562 58.632812 C 274.710938 38.175781 252.664062 16.722656 233.238281 23.773438 " fill-opacity="1" fill-rule="nonzero"/><path fill="#272727" d="M 239.332031 82.195312 L 239.09375 81.445312 C 234.089844 83.042969 230.761719 81.480469 230.726562 81.464844 L 230.382812 82.175781 C 230.480469 82.226562 232.039062 82.960938 234.628906 82.960938 C 235.945312 82.960938 237.535156 82.769531 239.332031 82.195312 Z M 168.15625 125.261719 L 162.585938 124.003906 L 162.414062 124.777344 L 167.984375 126.035156 Z M 304.097656 151.996094 L 303.308594 151.996094 L 303.308594 156.78125 L 304.097656 156.78125 Z M 251.738281 82.589844 L 250.28125 86.1875 L 251.015625 86.480469 L 253.40625 80.574219 L 252.347656 81.265625 C 252.21875 81.351562 239.191406 89.855469 233.519531 88.699219 C 227.390625 87.445312 222.109375 82.71875 217.375 74.25 L 216.496094 72.671875 L 216.953125 78.371094 L 217.742188 78.308594 L 217.566406 76.15625 C 222.195312 83.882812 227.375 88.246094 233.363281 89.472656 C 233.769531 89.554688 234.207031 89.59375 234.671875 89.59375 C 240.007812 89.59375 248.726562 84.464844 251.738281 82.589844 Z M 227.046875 64.621094 C 226.882812 64.621094 226.746094 64.757812 226.746094 64.925781 C 226.746094 65.09375 226.882812 65.226562 227.046875 65.226562 C 227.214844 65.226562 227.351562 65.09375 227.351562 64.925781 C 227.351562 64.757812 227.214844 64.621094 227.046875 64.621094 Z M 223.425781 64.621094 C 223.203125 64.621094 223.023438 64.800781 223.023438 65.023438 C 223.023438 65.246094 223.203125 65.429688 223.425781 65.429688 C 223.648438 65.429688 223.828125 65.246094 223.828125 65.023438 C 223.828125 64.800781 223.648438 64.621094 223.425781 64.621094 Z M 220.691406 60.804688 C 220.429688 60.804688 220.21875 61.015625 220.21875 61.277344 C 220.21875 61.535156 220.429688 61.746094 220.691406 61.746094 C 220.949219 61.746094 221.160156 61.535156 221.160156 61.277344 C 221.160156 61.015625 220.949219 60.804688 220.691406 60.804688 Z M 251.730469 68.613281 C 251.523438 68.613281 251.359375 68.777344 251.359375 68.984375 C 251.359375 69.1875 251.523438 69.355469 251.730469 69.355469 C 251.933594 69.355469 252.097656 69.1875 252.097656 68.984375 C 252.097656 68.777344 251.933594 68.613281 251.730469 68.613281 Z M 248.402344 70.765625 C 248.144531 70.765625 247.933594 70.976562 247.933594 71.234375 C 247.933594 71.492188 248.144531 71.699219 248.402344 71.699219 C 248.660156 71.699219 248.867188 71.492188 248.867188 71.234375 C 248.867188 70.976562 248.660156 70.765625 248.402344 70.765625 Z M 245.132812 68.097656 C 244.84375 68.097656 244.613281 68.328125 244.613281 68.613281 C 244.613281 68.898438 244.84375 69.128906 245.132812 69.128906 C 245.414062 69.128906 245.644531 68.898438 245.644531 68.613281 C 245.644531 68.328125 245.414062 68.097656 245.132812 68.097656 Z M 232.71875 49.496094 C 232.71875 49.496094 232.667969 46.472656 231.613281 45.769531 C 230.554688 45.0625 224.714844 41.734375 223.960938 43.097656 C 223.207031 44.457031 223.960938 46.824219 224.96875 46.976562 C 225.976562 47.128906 232.945312 51.429688 232.71875 49.496094 Z M 247.386719 48.621094 C 246.820312 48.699219 246.285156 48.910156 245.820312 49.242188 C 244.710938 50.039062 242.902344 51.542969 244.238281 52.027344 C 246.09375 52.699219 253.742188 52.5 254.679688 51.324219 C 255.597656 50.175781 259.214844 47.003906 247.386719 48.621094 Z M 216.050781 57.710938 C 215.980469 54.375 213.691406 51.941406 213.59375 51.839844 L 213.023438 52.386719 C 213.046875 52.410156 215.199219 54.695312 215.265625 57.726562 Z M 269.515625 61.207031 L 269.570312 60.417969 C 269.523438 60.410156 264.78125 60.132812 262.609375 64.816406 L 263.324219 65.152344 C 265.261719 60.96875 269.339844 61.1875 269.515625 61.207031 Z M 244.984375 77.945312 C 244.71875 77.929688 243.699219 77.238281 242.757812 76.425781 L 242.246094 77.027344 C 242.449219 77.203125 242.761719 77.460938 243.105469 77.722656 C 240.59375 78.558594 232.53125 80.660156 226.023438 75.941406 L 225.5625 76.578125 C 228.878906 78.984375 232.570312 79.699219 235.789062 79.699219 C 239.730469 79.699219 242.945312 78.632812 243.898438 78.28125 C 244.320312 78.542969 244.710938 78.734375 244.984375 78.734375 Z M 237.929688 72.890625 L 234.707031 71.078125 L 234.320312 71.765625 L 237.542969 73.578125 Z M 231.371094 71.828125 C 230.726562 71.417969 230.398438 70.945312 230.375 70.386719 C 230.316406 69.023438 232.0625 67.382812 232.742188 66.863281 L 232.261719 66.234375 C 232.148438 66.320312 229.5 68.367188 229.589844 70.417969 C 229.625 71.25 230.082031 71.945312 230.949219 72.492188 Z M 226.261719 51.746094 C 221.160156 50.871094 220.21875 50.066406 220.21875 50.066406 C 220.21875 50.066406 220.742188 53.617188 221.488281 53.585938 C 221.488281 53.585938 224.449219 52.300781 227.132812 53.152344 C 228.195312 53.492188 229.167969 54.628906 229.957031 55.875 C 229.921875 55.875 224.867188 55.785156 224.828125 60.925781 C 224.828125 60.925781 228.355469 63.765625 231.929688 59.9375 C 231.929688 59.9375 231.359375 52.617188 226.261719 51.746094 Z M 258.066406 57.988281 C 258.066406 57.988281 257.464844 61.214844 256.121094 61.277344 C 256.121094 61.277344 256.007812 60.96875 255.75 60.546875 L 256.121094 61.277344 C 254.445312 68.316406 248.328125 66.453125 248.328125 66.453125 C 248.542969 59.140625 253.945312 59.527344 255.109375 59.699219 C 254.234375 58.734375 252.714844 57.78125 250.285156 58.257812 C 245.855469 59.128906 242.5 61.953125 242.5 61.953125 C 242.5 61.953125 244.648438 57.761719 248.808594 56.9375 C 252.96875 56.109375 254.511719 58.664062 258.066406 57.988281 " fill-opacity="1" fill-rule="nonzero"/><path fill="#272727" d="M 211.085938 79.695312 L 205.683594 78.9375 L 205.570312 79.714844 L 210.976562 80.476562 Z M 214.125 98.097656 L 209.058594 101.625 L 209.507812 102.269531 L 214.574219 98.746094 Z M 261.03125 96.347656 L 261.414062 95.660156 L 254.648438 91.839844 C 256.800781 89.023438 258.167969 86.8125 258.335938 86.539062 L 257.660156 86.128906 C 257.535156 86.335938 244.855469 106.816406 233.820312 104.582031 L 233.433594 104.503906 L 228.625 128.226562 L 229.398438 128.386719 L 234.050781 105.425781 C 235.765625 105.699219 237.492188 105.480469 239.199219 104.921875 L 240.691406 110.113281 L 241.449219 109.898438 L 239.941406 104.652344 C 241.84375 103.917969 243.707031 102.78125 245.472656 101.417969 L 249.125 106.507812 L 249.765625 106.046875 L 246.09375 100.925781 C 247.550781 99.738281 248.941406 98.421875 250.222656 97.066406 L 254.695312 101.8125 L 255.269531 101.273438 L 250.757812 96.492188 C 252.015625 95.125 253.164062 93.746094 254.164062 92.472656 Z M 218.625 100.6875 L 218.9375 100.847656 L 210.621094 123.199219 L 209.882812 122.925781 L 217.957031 101.230469 C 214.496094 99.359375 212.558594 96.398438 211.539062 93.144531 L 206.089844 94.359375 L 205.917969 93.59375 L 211.316406 92.386719 C 210.816406 90.511719 210.605469 88.5625 210.570312 86.675781 L 204.910156 86.015625 L 204.996094 85.234375 L 210.5625 85.878906 C 210.589844 80.257812 212.09375 75.425781 212.125 75.328125 L 212.875 75.566406 C 212.816406 75.757812 206.921875 94.734375 218.625 100.6875 " fill-opacity="1" fill-rule="nonzero"/><path fill="#f6f6e9" d="M 218.046875 77.003906 C 218.046875 78.960938 216.460938 80.546875 214.5 80.546875 C 212.542969 80.546875 210.957031 78.960938 210.957031 77.003906 C 210.957031 75.042969 212.542969 73.457031 214.5 73.457031 C 216.460938 73.457031 218.046875 75.042969 218.046875 77.003906 Z M 220.929688 84.402344 C 220.929688 86.363281 219.34375 87.949219 217.386719 87.949219 C 215.429688 87.949219 213.84375 86.363281 213.84375 84.402344 C 213.84375 82.445312 215.429688 80.855469 217.386719 80.855469 C 219.34375 80.855469 220.929688 82.445312 220.929688 84.402344 Z M 225.074219 90.863281 C 225.074219 92.824219 223.488281 94.410156 221.53125 94.410156 C 219.574219 94.410156 217.988281 92.824219 217.988281 90.863281 C 217.988281 88.90625 219.574219 87.320312 221.53125 87.320312 C 223.488281 87.320312 225.074219 88.90625 225.074219 90.863281 Z M 255.023438 87.5625 C 255.023438 89.519531 253.433594 91.109375 251.480469 91.109375 C 249.519531 91.109375 247.933594 89.519531 247.933594 87.5625 C 247.933594 85.601562 249.519531 84.015625 251.480469 84.015625 C 253.433594 84.015625 255.023438 85.601562 255.023438 87.5625 Z M 248.527344 92.6875 C 248.527344 94.644531 246.941406 96.230469 244.984375 96.230469 C 243.027344 96.230469 241.441406 94.644531 241.441406 92.6875 C 241.441406 90.726562 243.027344 89.140625 244.984375 89.140625 C 246.941406 89.140625 248.527344 90.726562 248.527344 92.6875 Z M 241.070312 95.199219 C 241.070312 97.15625 239.484375 98.746094 237.527344 98.746094 C 235.570312 98.746094 233.980469 97.15625 233.980469 95.199219 C 233.980469 93.242188 235.570312 91.65625 237.527344 91.65625 C 239.484375 91.65625 241.070312 93.242188 241.070312 95.199219 Z M 229.15625 92.007812 C 227.199219 92.007812 225.613281 93.597656 225.613281 95.554688 C 225.613281 97.515625 227.199219 99.101562 229.15625 99.101562 C 231.109375 99.101562 232.695312 97.515625 232.695312 95.554688 C 232.695312 93.597656 231.109375 92.007812 229.15625 92.007812 Z M 266.375 58.300781 L 264.765625 59.050781 C 267.769531 52.902344 267.378906 44.117188 263.949219 37.351562 C 260.207031 29.964844 253.476562 25.058594 244.988281 23.535156 C 226.746094 20.261719 218.964844 40.535156 218.898438 40.726562 L 218.609375 38.816406 C 218.679688 38.609375 225.71875 18.476562 245.269531 21.984375 C 254.25 23.59375 261.386719 28.796875 265.355469 36.632812 C 269.0625 43.941406 269.640625 51.621094 266.375 58.300781 " fill-opacity="1" fill-rule="nonzero"/><path fill="#272727" d="M 346.679688 251.257812 L 267.664062 271.75 L 205.765625 287.800781 L 186.503906 292.792969 L 162.613281 298.992188 L 24.96875 334.6875 L 24.773438 333.933594 L 161.972656 298.34375 L 185.964844 292.125 L 205.40625 287.082031 L 267.664062 270.9375 L 346.480469 250.492188 L 346.679688 251.257812 " fill-opacity="1" fill-rule="nonzero"/><path fill="#272727" d="M 155.730469 300.519531 C 155.507812 300.105469 133.671875 259.101562 143.277344 229.730469 C 152.910156 200.269531 203.238281 195.6875 203.746094 195.644531 L 203.8125 196.429688 C 203.308594 196.472656 153.5 201.011719 144.027344 229.972656 C 134.527344 259.023438 156.203125 299.738281 156.425781 300.144531 L 155.730469 300.519531 " fill-opacity="1" fill-rule="nonzero"/><path fill="#272727" d="M 239.210938 132.335938 C 236.855469 126.746094 232.855469 126.722656 230.339844 127.390625 C 231.691406 126.40625 233.558594 125.523438 235.410156 126.253906 C 239.4375 127.839844 243.664062 136.765625 242.910156 168.167969 C 242.121094 152.375 240.917969 136.386719 239.210938 132.335938 Z M 238.949219 168.851562 C 238.949219 171.179688 237.039062 173.082031 234.714844 173.082031 C 234.507812 173.082031 234.304688 173.066406 234.109375 173.03125 C 232.070312 172.742188 229.078125 171.597656 229.078125 169.476562 L 229.617188 164.773438 C 229.617188 162.449219 232.171875 159.265625 234.488281 159.265625 C 235.292969 159.265625 236.277344 160.613281 236.921875 161.015625 C 237.207031 161.179688 237.464844 161.386719 237.703125 161.625 C 238.476562 162.394531 238.949219 163.453125 238.949219 164.613281 Z M 226.054688 127.308594 C 219.460938 124.132812 213.75 122.421875 208.824219 121.917969 C 216.828125 121.875 223.140625 125.347656 226.054688 127.308594 Z M 244.179688 203.390625 C 244.179688 203.390625 243.925781 191.679688 243.34375 177.699219 C 244.90625 145.683594 242.339844 128.136719 235.695312 125.519531 C 232.382812 124.210938 229.230469 127.113281 228.15625 128.257812 C 228.101562 128.285156 228.074219 128.304688 228.074219 128.304688 L 228.328125 128.007812 C 228.199219 127.894531 216.691406 118.097656 201.75 122.070312 C 165.515625 128.019531 184.1875 215.882812 184.1875 215.882812 L 206.78125 211.175781 C 202.800781 204.414062 203.0625 197.40625 203.070312 197.28125 L 203.980469 196.808594 C 203.976562 196.929688 203.667969 204.164062 207.738281 210.980469 L 240.488281 204.15625 C 241.027344 198.144531 240.488281 192.945312 240.488281 192.945312 L 241.214844 193.128906 C 241.261719 193.527344 241.785156 198.328125 241.328125 203.984375 L 244.179688 203.390625 " fill-opacity="1" fill-rule="nonzero"/><path fill="#97b690" d="M 192.875 207.847656 C 192.785156 207.542969 184.058594 177.414062 185.25 153.710938 C 186.425781 130.34375 204.859375 130.296875 205.621094 130.3125 L 205.628906 129.523438 C 205.628906 129.523438 205.625 129.523438 205.621094 129.523438 C 205.027344 129.523438 185.664062 129.777344 184.464844 153.671875 C 183.265625 177.503906 192.027344 207.761719 192.117188 208.070312 Z M 199.804688 204.144531 L 193.667969 177.417969 L 194.433594 177.242188 L 200.574219 203.96875 L 199.804688 204.144531 " fill-opacity="1" fill-rule="nonzero"/><g clip-path="url(#id1)"><path fill="#97b690" d="M 201.296875 332.917969 C 201.296875 332.917969 195.273438 336.285156 201.296875 344.28125 C 207.324219 352.273438 225.910156 360.425781 232.730469 354.652344 C 239.554688 348.882812 234.382812 330.878906 217.160156 327.570312 C 199.941406 324.257812 201.296875 332.917969 201.296875 332.917969 Z M 330.679688 266.25 L 321.785156 288.828125 L 238.71875 311.988281 C 234.265625 314.203125 232.957031 311.722656 232.957031 311.722656 C 232.957031 311.722656 223.523438 292.132812 221.992188 290.003906 C 220.464844 287.882812 223.507812 286.53125 223.507812 286.53125 L 256.289062 277.296875 L 315.527344 262.554688 L 330.679688 266.25 " fill-opacity="1" fill-rule="nonzero"/></g><g clip-path="url(#id2)"><path fill="#272727" d="M 232.480469 354.351562 C 232.28125 354.519531 232.066406 354.671875 231.84375 354.8125 C 231.214844 352.558594 228.875 344.90625 225.585938 343.417969 C 229.371094 341.886719 233.085938 341.984375 234.285156 342.066406 C 234.453125 342.535156 234.601562 342.996094 234.722656 343.449219 C 235.910156 347.996094 235.050781 352.175781 232.480469 354.351562 Z M 224.121094 356.078125 C 221.746094 355.8125 219.167969 355.128906 216.597656 354.160156 C 217.957031 348.644531 221.101562 345.605469 224.402344 343.953125 C 224.425781 343.953125 224.445312 343.953125 224.46875 343.953125 C 227.4375 343.953125 230.199219 351.78125 231.136719 355.210938 C 229.359375 356.09375 226.972656 356.398438 224.121094 356.078125 Z M 201.613281 344.042969 C 199.523438 341.265625 198.6875 338.78125 199.128906 336.652344 C 199.609375 334.351562 201.472656 333.269531 201.492188 333.261719 L 201.730469 333.125 L 201.6875 332.859375 C 201.683594 332.835938 201.402344 330.878906 203.046875 329.289062 C 204.132812 328.238281 206.222656 327.214844 210.242188 327.214844 C 212.089844 327.214844 214.339844 327.429688 217.085938 327.957031 C 226.375 329.746094 231.777344 335.828125 233.988281 341.269531 C 232.335938 341.214844 228.300781 341.3125 224.382812 343.164062 C 224.378906 343.164062 224.375 343.164062 224.367188 343.164062 L 224.367188 343.167969 C 220.796875 344.863281 217.332031 348.027344 215.863281 353.875 C 210.074219 351.5625 204.46875 347.832031 201.613281 344.042969 Z M 235.484375 343.25 C 233.886719 337.148438 228.152344 329.28125 217.238281 327.183594 C 209.960938 325.785156 204.996094 326.300781 202.496094 328.722656 C 200.921875 330.246094 200.847656 332.042969 200.886719 332.714844 C 200.3125 333.101562 198.820312 334.300781 198.359375 336.476562 C 197.863281 338.839844 198.746094 341.546875 200.984375 344.519531 C 205.335938 350.296875 215.890625 355.949219 224.03125 356.863281 C 224.804688 356.949219 225.546875 356.992188 226.253906 356.992188 C 229.09375 356.992188 231.398438 356.300781 232.988281 354.953125 C 235.792969 352.582031 236.75 348.09375 235.484375 343.25 Z M 314.496094 267.808594 L 309.402344 269.230469 L 308.039062 266.585938 L 312.679688 265.285156 C 312.925781 265.210938 313.246094 265.378906 313.386719 265.65625 Z M 316.277344 271.28125 L 311.1875 272.710938 L 309.757812 269.925781 L 314.847656 268.5 Z M 317.976562 274.578125 L 312.882812 276.003906 L 311.542969 273.398438 L 316.636719 271.972656 Z M 319.667969 277.875 L 314.574219 279.300781 L 313.238281 276.699219 L 318.328125 275.269531 Z M 320.996094 280.457031 C 321.136719 280.730469 321.046875 281.011719 320.796875 281.082031 L 316.160156 282.378906 L 314.933594 279.996094 L 320.023438 278.570312 Z M 308.773438 269.410156 L 305.6875 270.273438 L 304.324219 267.621094 L 307.40625 266.761719 Z M 310.554688 272.886719 L 307.472656 273.746094 L 306.042969 270.96875 L 309.125 270.101562 Z M 312.253906 276.183594 L 309.167969 277.046875 L 307.828125 274.441406 L 310.914062 273.578125 Z M 313.945312 279.476562 L 310.859375 280.34375 L 309.519531 277.738281 L 312.605469 276.875 Z M 315.527344 282.558594 L 312.441406 283.421875 L 311.214844 281.035156 L 314.300781 280.171875 Z M 305.054688 270.449219 L 301.824219 271.355469 L 300.460938 268.707031 L 303.691406 267.800781 Z M 306.839844 273.925781 L 303.609375 274.832031 L 302.179688 272.050781 L 305.410156 271.144531 Z M 308.535156 277.222656 L 305.304688 278.128906 L 303.964844 275.523438 L 307.199219 274.617188 Z M 310.230469 280.519531 L 307 281.425781 L 305.660156 278.820312 L 308.890625 277.914062 Z M 311.8125 283.597656 L 308.578125 284.503906 L 307.355469 282.117188 L 310.585938 281.214844 Z M 301.191406 271.535156 L 298.214844 272.367188 L 296.851562 269.714844 L 299.832031 268.882812 Z M 302.980469 275.007812 L 300 275.839844 L 298.570312 273.058594 L 301.550781 272.226562 Z M 304.671875 278.304688 L 301.695312 279.140625 L 300.359375 276.535156 L 303.332031 275.699219 Z M 306.367188 281.605469 L 303.390625 282.4375 L 302.050781 279.832031 L 305.03125 278.996094 Z M 307.949219 284.679688 L 304.972656 285.515625 L 303.746094 283.128906 L 306.722656 282.296875 Z M 297.585938 272.542969 L 294.753906 273.339844 L 293.394531 270.6875 L 296.222656 269.894531 Z M 299.371094 276.019531 L 296.542969 276.8125 L 295.113281 274.027344 L 297.941406 273.234375 Z M 301.066406 279.316406 L 298.234375 280.105469 L 296.894531 277.503906 L 299.726562 276.710938 Z M 302.761719 282.613281 L 299.929688 283.40625 L 298.589844 280.800781 L 301.421875 280.007812 Z M 304.339844 285.691406 L 301.511719 286.480469 L 300.285156 284.097656 L 303.117188 283.308594 Z M 294.125 273.515625 L 291.332031 274.296875 L 289.972656 271.644531 L 292.761719 270.863281 Z M 295.910156 276.988281 L 293.121094 277.769531 L 291.691406 274.988281 L 294.480469 274.207031 Z M 297.605469 280.285156 L 294.8125 281.066406 L 293.472656 278.460938 L 296.265625 277.679688 Z M 299.296875 283.585938 L 296.507812 284.367188 L 295.171875 281.757812 L 297.960938 280.976562 Z M 300.882812 286.660156 L 298.089844 287.441406 L 296.863281 285.058594 L 299.65625 284.273438 Z M 290.703125 274.472656 L 287.511719 275.367188 L 286.148438 272.714844 L 289.339844 271.820312 Z M 292.488281 277.945312 L 289.296875 278.839844 L 287.867188 276.058594 L 291.058594 275.164062 Z M 294.183594 281.246094 L 290.992188 282.136719 L 289.652344 279.535156 L 292.84375 278.640625 Z M 295.878906 284.542969 L 292.683594 285.4375 L 291.347656 282.828125 L 294.539062 281.933594 Z M 297.460938 287.621094 L 294.269531 288.511719 L 293.042969 286.128906 L 296.234375 285.234375 Z M 286.882812 275.542969 L 283.726562 276.425781 L 282.367188 273.777344 L 285.519531 272.894531 Z M 288.664062 279.015625 L 285.515625 279.902344 L 284.085938 277.117188 L 287.238281 276.234375 Z M 290.359375 282.3125 L 287.207031 283.199219 L 285.871094 280.59375 L 289.023438 279.710938 Z M 292.058594 285.613281 L 288.90625 286.496094 L 287.566406 283.890625 L 290.71875 283.007812 Z M 293.636719 288.6875 L 290.484375 289.574219 L 289.261719 287.1875 L 292.410156 286.304688 Z M 283.097656 276.601562 L 258.433594 283.511719 L 257.070312 280.863281 L 281.738281 273.953125 Z M 284.882812 280.078125 L 281.730469 280.960938 L 280.304688 278.175781 L 283.453125 277.296875 Z M 286.578125 283.375 L 283.425781 284.257812 L 282.089844 281.652344 L 285.242188 280.769531 Z M 288.273438 286.671875 L 285.125 287.558594 L 283.785156 284.949219 L 286.933594 284.066406 Z M 289.855469 289.75 L 286.703125 290.632812 L 285.476562 288.25 L 288.628906 287.367188 Z M 281.101562 281.136719 L 278.085938 281.980469 L 276.652344 279.199219 L 279.671875 278.355469 Z M 282.792969 284.433594 L 279.78125 285.28125 L 278.441406 282.675781 L 281.457031 281.828125 Z M 284.492188 287.734375 L 281.472656 288.578125 L 280.132812 285.96875 L 283.152344 285.125 Z M 286.070312 290.808594 L 283.054688 291.652344 L 281.832031 289.273438 L 284.847656 288.421875 Z M 277.453125 282.160156 L 274.597656 282.957031 L 273.167969 280.179688 L 276.023438 279.375 Z M 279.148438 285.457031 L 276.292969 286.257812 L 274.953125 283.652344 L 277.808594 282.851562 Z M 280.84375 288.753906 L 277.988281 289.554688 L 276.648438 286.949219 L 279.503906 286.148438 Z M 282.425781 291.828125 L 279.566406 292.632812 L 278.34375 290.25 L 281.199219 289.445312 Z M 273.96875 283.132812 L 271.109375 283.9375 L 269.679688 281.15625 L 272.539062 280.355469 Z M 275.660156 286.433594 L 272.804688 287.234375 L 271.464844 284.628906 L 274.320312 283.828125 Z M 277.355469 289.730469 L 274.5 290.53125 L 273.160156 287.925781 L 276.019531 287.125 Z M 278.9375 292.808594 L 276.082031 293.609375 L 274.855469 291.222656 L 277.710938 290.425781 Z M 270.476562 284.113281 L 267.503906 284.945312 L 266.070312 282.167969 L 269.046875 281.332031 Z M 272.175781 287.410156 L 269.195312 288.246094 L 267.855469 285.640625 L 270.835938 284.804688 Z M 273.867188 290.707031 L 270.890625 291.542969 L 269.554688 288.9375 L 272.527344 288.101562 Z M 275.449219 293.785156 L 272.472656 294.621094 L 271.246094 292.234375 L 274.222656 291.402344 Z M 266.871094 285.125 L 264.125 285.894531 L 262.691406 283.113281 L 265.441406 282.34375 Z M 268.566406 288.421875 L 265.816406 289.191406 L 264.476562 286.585938 L 267.226562 285.816406 Z M 270.261719 291.71875 L 267.511719 292.488281 L 266.171875 289.882812 L 268.921875 289.113281 Z M 271.84375 294.796875 L 269.089844 295.566406 L 267.867188 293.183594 L 270.617188 292.410156 Z M 263.492188 286.070312 L 260.21875 286.988281 L 258.789062 284.207031 L 262.0625 283.289062 Z M 265.1875 289.371094 L 261.910156 290.285156 L 260.574219 287.679688 L 263.847656 286.761719 Z M 266.878906 292.664062 L 263.609375 293.582031 L 262.269531 290.976562 L 265.542969 290.0625 Z M 268.464844 295.742188 L 265.1875 296.660156 L 263.964844 294.273438 L 267.238281 293.359375 Z M 257.804688 283.6875 L 254.625 284.578125 L 253.261719 281.933594 L 256.441406 281.042969 Z M 259.589844 287.167969 L 256.410156 288.058594 L 254.980469 285.273438 L 258.15625 284.382812 Z M 261.285156 290.460938 L 258.105469 291.351562 L 256.765625 288.746094 L 259.945312 287.855469 Z M 262.976562 293.757812 L 259.800781 294.652344 L 258.460938 292.042969 L 261.636719 291.15625 Z M 264.5625 296.835938 L 261.378906 297.726562 L 260.15625 295.339844 L 263.335938 294.449219 Z M 253.992188 284.757812 L 250.761719 285.660156 L 249.398438 283.015625 L 252.632812 282.109375 Z M 255.78125 288.234375 L 252.546875 289.140625 L 251.117188 286.355469 L 254.347656 285.449219 Z M 257.472656 291.53125 L 254.242188 292.433594 L 252.902344 289.828125 L 256.132812 288.921875 Z M 259.167969 294.828125 L 255.9375 295.734375 L 254.597656 293.128906 L 257.828125 292.222656 Z M 260.746094 297.902344 L 257.515625 298.808594 L 256.289062 296.421875 L 259.523438 295.519531 Z M 250.128906 285.839844 L 247.21875 286.65625 L 245.859375 284.007812 L 248.769531 283.191406 Z M 251.914062 289.316406 L 249.007812 290.128906 L 247.574219 287.347656 L 250.484375 286.53125 Z M 253.609375 292.609375 L 250.699219 293.425781 L 249.359375 290.820312 L 252.269531 290.003906 Z M 255.304688 295.910156 L 252.394531 296.726562 L 251.058594 294.117188 L 253.964844 293.304688 Z M 256.886719 298.984375 L 253.976562 299.800781 L 252.75 297.417969 L 255.660156 296.601562 Z M 246.589844 286.832031 L 244.214844 287.496094 L 242.851562 284.84375 L 245.226562 284.183594 Z M 248.375 290.308594 L 246 290.972656 L 244.570312 288.191406 L 246.945312 287.523438 Z M 250.070312 293.601562 L 247.699219 294.269531 L 246.359375 291.664062 L 248.730469 290.996094 Z M 251.765625 296.902344 L 249.390625 297.566406 L 248.050781 294.960938 L 250.425781 294.296875 Z M 253.347656 299.976562 L 250.972656 300.644531 L 249.746094 298.257812 L 252.121094 297.59375 Z M 243.585938 287.671875 L 240.996094 288.398438 L 239.632812 285.75 L 242.222656 285.023438 Z M 245.371094 291.148438 L 242.78125 291.875 L 241.351562 289.089844 L 243.941406 288.367188 Z M 247.066406 294.445312 L 244.476562 295.171875 L 243.140625 292.5625 L 245.726562 291.839844 Z M 248.761719 297.742188 L 246.167969 298.46875 L 244.832031 295.863281 L 247.421875 295.136719 Z M 250.339844 300.820312 L 247.753906 301.546875 L 246.527344 299.160156 L 249.117188 298.4375 Z M 240.367188 288.574219 L 237.5625 289.359375 L 236.203125 286.710938 L 239.003906 285.925781 Z M 242.152344 292.050781 L 239.351562 292.835938 L 237.917969 290.054688 L 240.722656 289.269531 Z M 243.847656 295.347656 L 241.042969 296.132812 L 239.703125 293.523438 L 242.507812 292.742188 Z M 245.542969 298.644531 L 242.738281 299.429688 L 241.398438 296.824219 L 244.203125 296.039062 Z M 247.121094 301.722656 L 244.320312 302.507812 L 243.09375 300.121094 L 245.894531 299.335938 Z M 236.933594 289.535156 L 233.863281 290.398438 L 232.496094 287.75 L 235.570312 286.886719 Z M 238.71875 293.015625 L 235.644531 293.875 L 234.214844 291.089844 L 237.289062 290.230469 Z M 240.414062 296.308594 L 237.34375 297.167969 L 236.003906 294.5625 L 239.074219 293.703125 Z M 242.105469 299.605469 L 239.035156 300.46875 L 237.695312 297.863281 L 240.765625 297 Z M 243.691406 302.683594 L 240.617188 303.542969 L 239.390625 301.160156 L 242.464844 300.296875 Z M 233.230469 290.574219 L 230.105469 291.449219 L 228.742188 288.800781 L 231.867188 287.925781 Z M 235.015625 294.050781 L 231.890625 294.925781 L 230.460938 292.140625 L 233.585938 291.265625 Z M 236.710938 297.34375 L 233.585938 298.21875 L 232.246094 295.617188 L 235.371094 294.738281 Z M 238.40625 300.644531 L 235.28125 301.519531 L 233.941406 298.914062 L 237.066406 298.039062 Z M 239.984375 303.71875 L 236.863281 304.59375 L 235.636719 302.210938 L 238.761719 301.335938 Z M 229.476562 291.625 L 226.492188 292.460938 L 225.386719 290.308594 C 225.246094 290.035156 225.332031 289.753906 225.585938 289.683594 L 228.113281 288.980469 Z M 231.257812 295.101562 L 228.277344 295.9375 L 226.847656 293.152344 L 229.828125 292.320312 Z M 232.957031 298.398438 L 229.972656 299.234375 L 228.632812 296.628906 L 231.617188 295.792969 Z M 234.648438 301.695312 L 231.667969 302.53125 L 230.328125 299.929688 L 233.308594 299.089844 Z M 236.230469 304.773438 L 233.703125 305.484375 C 233.453125 305.550781 233.132812 305.382812 232.992188 305.109375 L 232.023438 303.222656 L 235.003906 302.386719 Z M 312.324219 264.59375 L 225.226562 288.992188 C 224.628906 289.160156 224.417969 289.832031 224.757812 290.484375 L 232.363281 305.289062 C 232.699219 305.945312 233.460938 306.339844 234.058594 306.171875 L 321.152344 281.773438 C 321.75 281.605469 321.960938 280.933594 321.625 280.277344 L 314.019531 265.476562 C 313.683594 264.820312 312.921875 264.421875 312.324219 264.59375 Z M 323.324219 284.992188 C 323.546875 285.421875 323.410156 285.859375 323.019531 285.96875 L 318.636719 287.195312 L 317.414062 284.828125 L 321.796875 283.601562 C 322.1875 283.488281 322.683594 283.75 322.90625 284.175781 Z M 318.003906 287.371094 L 314.917969 288.238281 L 313.699219 285.867188 L 316.785156 285.003906 Z M 314.289062 288.414062 L 311.054688 289.320312 L 309.839844 286.949219 L 313.070312 286.042969 Z M 310.421875 289.496094 L 307.449219 290.332031 L 306.226562 287.960938 L 309.207031 287.125 Z M 306.816406 290.507812 L 303.984375 291.304688 L 302.769531 288.929688 L 305.601562 288.136719 Z M 303.359375 291.480469 L 300.566406 292.261719 L 299.347656 289.890625 L 302.136719 289.109375 Z M 299.9375 292.4375 L 296.746094 293.332031 L 295.523438 290.960938 L 298.714844 290.066406 Z M 296.113281 293.507812 L 292.960938 294.390625 L 291.742188 292.019531 L 294.894531 291.136719 Z M 292.332031 294.566406 L 289.179688 295.449219 L 287.960938 293.082031 L 291.109375 292.195312 Z M 288.546875 295.628906 L 285.53125 296.472656 L 284.3125 294.101562 L 287.328125 293.257812 Z M 284.898438 296.648438 L 282.042969 297.449219 L 280.828125 295.078125 L 283.683594 294.277344 Z M 281.414062 297.625 L 278.558594 298.425781 L 277.335938 296.054688 L 280.195312 295.253906 Z M 277.925781 298.601562 L 274.945312 299.4375 L 273.730469 297.066406 L 276.707031 296.230469 Z M 274.320312 299.613281 L 271.566406 300.382812 L 270.347656 298.011719 L 273.097656 297.242188 Z M 270.9375 300.558594 L 267.664062 301.476562 L 266.445312 299.109375 L 269.71875 298.1875 Z M 267.035156 301.652344 L 263.855469 302.542969 L 262.636719 300.175781 L 265.816406 299.285156 Z M 263.222656 302.71875 L 259.992188 303.625 L 258.777344 301.257812 L 262.007812 300.351562 Z M 259.363281 303.800781 L 256.449219 304.621094 L 255.234375 302.25 L 258.144531 301.433594 Z M 255.824219 304.796875 L 253.449219 305.460938 L 252.226562 303.089844 L 254.601562 302.425781 Z M 252.816406 305.636719 L 250.230469 306.363281 L 249.007812 303.992188 L 251.601562 303.265625 Z M 249.597656 306.539062 L 246.792969 307.324219 L 245.574219 304.957031 L 248.382812 304.167969 Z M 246.164062 307.5 L 243.09375 308.363281 L 241.875 305.992188 L 244.945312 305.132812 Z M 242.460938 308.539062 L 239.339844 309.414062 L 238.117188 307.042969 L 241.246094 306.167969 Z M 238.707031 309.589844 L 236.433594 310.226562 C 236.042969 310.335938 235.546875 310.078125 235.324219 309.648438 L 234.90625 308.832031 C 234.6875 308.40625 234.824219 307.96875 235.214844 307.855469 L 237.488281 307.222656 Z M 321.445312 282.90625 L 234.859375 307.164062 C 234.121094 307.371094 233.859375 308.203125 234.273438 309.007812 L 234.695312 309.824219 C 235.113281 310.636719 236.046875 311.125 236.789062 310.921875 L 323.371094 286.660156 C 324.109375 286.453125 324.371094 285.625 323.957031 284.816406 L 323.539062 284 C 323.121094 283.191406 322.183594 282.699219 321.445312 282.90625 Z M 326.074219 284.902344 C 326.644531 286.007812 326.285156 287.136719 325.277344 287.417969 L 236.046875 312.421875 C 235.035156 312.703125 233.753906 312.03125 233.1875 310.925781 L 222.265625 289.675781 C 221.695312 288.570312 222.050781 287.441406 223.0625 287.160156 L 312.296875 262.15625 C 313.304688 261.878906 314.585938 262.546875 315.15625 263.652344 Z M 311.9375 261.464844 L 222.707031 286.464844 C 221.351562 286.84375 220.871094 288.367188 221.632812 289.855469 L 232.554688 311.105469 C 233.320312 312.589844 235.042969 313.492188 236.398438 313.113281 L 325.636719 288.113281 C 326.988281 287.730469 327.472656 286.214844 326.703125 284.726562 L 315.785156 263.472656 C 315.023438 261.988281 313.292969 261.089844 311.9375 261.464844 " fill-opacity="1" fill-rule="nonzero"/></g><path fill="#cbddd1" d="M 189.835938 325.890625 C 195.257812 339.6875 192.773438 332.773438 201.429688 341.539062 C 210.085938 350.300781 217.839844 352.683594 219.347656 352.683594 C 220.859375 352.683594 218.609375 349.527344 218.609375 349.527344 C 218.609375 349.527344 221.761719 354.699219 224.179688 354.699219 C 226.59375 354.699219 225.386719 351.578125 225.386719 351.578125 C 225.386719 351.578125 225.386719 352.484375 227.90625 352.28125 C 230.421875 352.082031 225.488281 340.09375 225.1875 338.382812 C 224.886719 336.667969 221.503906 331.15625 221.503906 331.15625 L 226.59375 332.472656 C 226.59375 332.472656 232.164062 346.507812 234.042969 345.433594 C 235.925781 344.359375 234.378906 329.917969 230.621094 326.828125 C 226.863281 323.738281 205.257812 316.21875 205.257812 316.21875 C 205.257812 316.21875 184.417969 312.089844 189.835938 325.890625 Z M 236.921875 160.996094 C 236.273438 160.59375 235.515625 160.367188 234.710938 160.367188 C 232.394531 160.367188 230.484375 162.265625 230.484375 164.597656 L 230.484375 168.835938 C 230.484375 170.957031 232.070312 172.722656 234.105469 173.015625 L 234.523438 197.304688 C 216.726562 212.5 203.976562 197.019531 203.976562 197.019531 L 209.363281 194.015625 L 209.023438 186.601562 C 201.082031 188.980469 196.320312 188 190.769531 175.972656 C 185.21875 163.949219 189.972656 159.75 189.972656 159.75 C 189.972656 159.75 186.34375 141.824219 202.894531 136.605469 C 207.25 135.230469 211.050781 135.570312 214.296875 136.804688 C 217.066406 134.703125 224.066406 131.019531 224.066406 131.019531 C 224.066406 131.019531 218.121094 135.214844 215.03125 137.085938 C 223.683594 140.796875 228.175781 150.785156 228.175781 150.785156 C 228.175781 150.785156 231.921875 144.320312 238.269531 149.082031 C 242.273438 152.085938 239.507812 157.453125 236.921875 160.996094 " fill-opacity="1" fill-rule="nonzero"/><path fill="#272727" d="M 221.761719 330.859375 L 220.347656 329.621094 L 219.828125 330.214844 L 221.246094 331.453125 Z M 219.535156 350.210938 L 211.277344 338.886719 L 210.640625 339.351562 L 218.898438 350.679688 Z M 225.019531 351.71875 C 224.984375 351.625 221.527344 342.480469 220.667969 340.699219 C 219.832031 338.953125 215.265625 333.519531 215.222656 333.464844 L 215.824219 332.953125 C 216.015625 333.183594 220.5 338.519531 221.382812 340.359375 C 222.25 342.167969 225.617188 351.0625 225.757812 351.441406 L 225.019531 351.71875 " fill-opacity="1" fill-rule="nonzero"/><path fill="#f6f6e9" d="M 241.230469 193.269531 C 241.433594 195.167969 243.113281 213.171875 235.171875 220.328125 C 233.0625 222.222656 230.460938 223.175781 227.398438 223.175781 C 226.167969 223.175781 224.863281 223.023438 223.492188 222.714844 C 203.433594 218.222656 203.039062 199.695312 203.066406 197.503906 C 199.464844 199.316406 172.363281 213.019531 171.230469 215.28125 C 170.023438 217.695312 154.117188 289.015625 155.324219 291.234375 C 155.648438 291.832031 158.292969 294.605469 161.972656 298.34375 C 162.179688 298.554688 162.390625 298.773438 162.613281 298.992188 C 172.753906 309.238281 189.835938 325.890625 189.835938 325.890625 L 205.253906 316.214844 L 186.503906 292.792969 L 185.964844 292.125 L 176.867188 280.753906 L 188.078125 253.355469 L 205.40625 287.082031 L 267.664062 270.9375 L 267.664062 199.363281 Z M 209.363281 194.015625 L 209.179688 191.300781 L 234.230469 180.21875 L 234.429688 191.699219 L 240.503906 193.101562 C 240.667969 194.886719 242.160156 212.972656 234.644531 219.738281 C 231.890625 222.21875 228.195312 222.960938 223.664062 221.941406 C 204.203125 217.585938 203.941406 199.148438 203.976562 197.019531 L 209.363281 194.015625 " fill-opacity="1" fill-rule="nonzero"/><path fill="#97b690" d="M 204.585938 175.105469 C 197.40625 177.65625 195.660156 173.023438 195.660156 173.023438 C 200.960938 173.425781 215.589844 162.347656 215.589844 162.347656 C 215.589844 162.347656 211.765625 172.550781 204.585938 175.105469 " fill-opacity="1" fill-rule="nonzero"/><path fill="#272727" d="M 218.65625 351.460938 C 218.652344 351.453125 218.65625 351.402344 218.636719 351.308594 C 218.4375 350.34375 217.761719 349.050781 216.90625 348.546875 C 216.695312 348.425781 216.496094 348.363281 216.304688 348.363281 C 216.214844 348.363281 216.128906 348.375 216.042969 348.398438 L 216.039062 348.402344 C 215.789062 348.480469 215.238281 348.738281 215.148438 349.042969 C 215.109375 349.191406 215.1875 349.378906 215.382812 349.605469 C 216.324219 350.664062 218.265625 351.628906 218.65625 351.460938 Z M 219.40625 351.148438 C 219.546875 351.820312 219.183594 352.082031 219.023438 352.160156 C 218.894531 352.226562 218.742188 352.253906 218.570312 352.253906 C 217.449219 352.253906 215.550781 350.984375 214.792969 350.125 C 214.3125 349.582031 214.308594 349.117188 214.390625 348.824219 C 214.621094 348.03125 215.675781 347.6875 215.808594 347.648438 C 216.292969 347.5 216.808594 347.574219 217.304688 347.867188 C 218.367188 348.492188 219.167969 349.988281 219.40625 351.148438 Z M 224.433594 351.0625 L 224.433594 351.066406 C 224.433594 351.066406 224.003906 350.019531 223.109375 349.296875 C 222.730469 349.023438 222.097656 348.707031 221.683594 348.707031 C 221.589844 348.707031 221.511719 348.722656 221.441406 348.757812 C 221.222656 348.882812 221.128906 349.300781 221.175781 349.9375 C 221.273438 351.234375 222.492188 352.558594 223.570312 352.980469 C 223.984375 353.144531 224.316406 353.148438 224.484375 352.992188 C 224.582031 352.902344 224.875 352.484375 224.433594 351.0625 Z M 225.175781 350.804688 C 225.597656 352.160156 225.542969 353.082031 225.019531 353.570312 C 224.789062 353.785156 224.484375 353.894531 224.132812 353.894531 C 223.875 353.894531 223.589844 353.835938 223.285156 353.71875 C 221.960938 353.195312 220.515625 351.664062 220.390625 349.996094 C 220.316406 349.007812 220.539062 348.355469 221.0625 348.066406 C 222 347.542969 223.421875 348.546875 223.582031 348.664062 L 223.59375 348.675781 C 224.671875 349.539062 225.15625 350.753906 225.175781 350.804688 Z M 227.09375 350.789062 C 226.546875 350.453125 226.160156 349.820312 225.949219 348.917969 C 225.722656 347.960938 225.765625 347.257812 226.082031 346.886719 C 226.363281 346.554688 226.800781 346.585938 226.816406 346.582031 L 226.847656 346.191406 L 226.882812 345.796875 C 226.847656 345.789062 226.042969 345.726562 225.488281 346.367188 C 224.992188 346.9375 224.890625 347.859375 225.183594 349.101562 C 225.445312 350.222656 225.953125 351.019531 226.695312 351.46875 C 227.210938 351.785156 227.738281 351.859375 228.121094 351.859375 C 228.445312 351.859375 228.664062 351.804688 228.679688 351.800781 L 228.488281 351.035156 C 228.484375 351.035156 227.761719 351.203125 227.09375 350.789062 Z M 233.050781 340.996094 C 232.742188 338.847656 234.46875 338.519531 234.667969 338.488281 L 234.609375 338.097656 L 234.554688 337.707031 C 234.507812 337.714844 233.433594 337.875 232.753906 338.78125 C 232.300781 339.390625 232.136719 340.171875 232.269531 341.105469 C 232.683594 343.972656 234.460938 344.347656 234.535156 344.359375 L 234.691406 343.585938 C 234.636719 343.574219 233.382812 343.269531 233.050781 340.996094 Z M 184.714844 315.921875 L 192.632812 323.621094 L 193.183594 323.054688 L 185.265625 315.355469 Z M 187.796875 311.929688 L 197.253906 321.34375 L 197.8125 320.785156 L 188.351562 311.371094 Z M 192.628906 309.011719 L 201.878906 318.4375 L 202.4375 317.882812 L 193.1875 308.460938 Z M 212.121094 199.023438 L 212.90625 199.023438 L 212.90625 189.828125 L 212.121094 189.828125 Z M 219.039062 199.359375 L 219.039062 187.113281 L 218.25 187.113281 L 218.25 199.359375 Z M 224.1875 202.839844 L 224.976562 202.839844 L 224.976562 184.488281 L 224.1875 184.488281 Z M 229.246094 196.40625 L 230.03125 196.40625 L 230.03125 182.25 L 229.246094 182.25 Z M 199.925781 241.984375 L 189.300781 251.699219 L 195.539062 238.617188 L 194.828125 238.277344 L 186.851562 255.011719 L 200.453125 242.566406 Z M 234.035156 191.714844 L 234.152344 196.046875 L 234.941406 196.023438 L 234.824219 191.691406 Z M 191.488281 146.332031 L 190.945312 147.683594 L 194.050781 145.296875 C 194.050781 145.296875 192.363281 145.230469 191.488281 146.332031 Z M 195.136719 155.949219 C 194.082031 156.574219 192.699219 157.53125 192.429688 158.390625 C 192.34375 158.675781 192.367188 158.953125 192.496094 159.1875 C 193.183594 160.425781 196.117188 163.628906 196.242188 163.765625 L 196.824219 163.230469 C 196.792969 163.199219 193.828125 159.960938 193.1875 158.808594 C 193.171875 158.785156 193.148438 158.738281 193.183594 158.625 C 193.421875 157.855469 195.472656 156.601562 196.707031 155.992188 L 196.359375 155.285156 C 196.234375 155.347656 195.773438 155.578125 195.210938 155.910156 C 194.582031 155.5625 191.371094 153.863281 189.652344 154.769531 L 187.070312 153.984375 L 189.835938 156.78125 C 189.835938 156.78125 192.449219 155.566406 195.136719 155.949219 Z M 210.488281 139.992188 C 203.578125 138.582031 200.191406 143.078125 200.191406 143.078125 C 203.175781 141.265625 217.402344 141.402344 210.488281 139.992188 Z M 203.777344 153.691406 C 206.667969 151.003906 214.183594 149.796875 214.183594 149.796875 L 214.785156 146.035156 L 211.964844 147.917969 C 206.195312 148.988281 203.777344 153.691406 203.777344 153.691406 Z M 230.109375 155.859375 L 230.863281 156.089844 C 232.09375 152.03125 236.183594 152.390625 236.351562 152.40625 L 236.433594 151.621094 C 236.386719 151.617188 231.53125 151.171875 230.109375 155.859375 Z M 224.324219 175.574219 C 224.222656 175.664062 213.996094 184.433594 208.890625 186.230469 L 209.148438 186.972656 C 214.402344 185.132812 224.414062 176.535156 224.839844 176.171875 Z M 214.652344 163.53125 C 211.203125 166.042969 201.191406 173.058594 196.316406 173.410156 C 197.015625 174.480469 199.160156 176.613281 204.453125 174.730469 C 209.847656 172.8125 213.351562 166.34375 214.652344 163.53125 Z M 204.71875 175.476562 C 203.132812 176.039062 201.800781 176.261719 200.679688 176.261719 C 196.519531 176.261719 195.304688 173.203125 195.292969 173.164062 L 195.074219 172.582031 L 195.691406 172.628906 C 195.777344 172.636719 195.871094 172.636719 195.964844 172.636719 C 201.285156 172.636719 215.210938 162.140625 215.351562 162.03125 L 215.933594 161.589844 C 214.824219 161.0625 214.003906 160.445312 213.941406 160.394531 L 214.421875 159.769531 C 214.445312 159.789062 216.996094 161.71875 219.046875 161.535156 L 219.117188 162.320312 C 219 162.332031 218.882812 162.335938 218.765625 162.335938 C 217.90625 162.335938 217.019531 162.066406 216.242188 161.730469 L 215.960938 162.484375 C 215.800781 162.90625 211.988281 172.894531 204.71875 175.476562 Z M 201.863281 161.394531 L 198.304688 160.386719 L 198.515625 159.628906 L 202.074219 160.636719 L 201.863281 161.394531 " fill-opacity="1" fill-rule="nonzero"/><path fill="#97b690" d="M 364.972656 263.148438 L 272.828125 288.890625 C 269 289.960938 265.210938 287.0625 265.242188 283.085938 L 265.828125 202.066406 C 265.847656 199.28125 267.789062 196.875 270.507812 196.269531 L 366.929688 174.785156 C 370.816406 173.921875 374.449219 177.027344 374.195312 181.003906 L 369.332031 257.761719 C 369.167969 260.300781 367.421875 262.460938 364.972656 263.148438 " fill-opacity="1" fill-rule="nonzero"/><path fill="#272727" d="M 337.628906 237.90625 C 337.425781 237.90625 337.21875 237.925781 337.015625 237.972656 L 312.890625 243.398438 C 311.613281 243.683594 310.71875 244.800781 310.71875 246.109375 L 310.71875 266.03125 C 310.71875 266.90625 311.117188 267.707031 311.804688 268.238281 C 312.492188 268.769531 313.375 268.945312 314.214844 268.722656 L 337.777344 262.46875 C 338.960938 262.15625 339.808594 261.082031 339.84375 259.859375 L 340.402344 240.769531 C 340.425781 239.90625 340.058594 239.089844 339.390625 238.539062 C 338.886719 238.125 338.265625 237.90625 337.628906 237.90625 Z M 313.492188 269.609375 C 312.71875 269.609375 311.960938 269.351562 311.324219 268.863281 C 310.4375 268.179688 309.929688 267.152344 309.929688 266.03125 L 309.929688 246.109375 C 309.929688 244.425781 311.078125 242.992188 312.71875 242.625 L 336.839844 237.203125 C 337.921875 236.960938 339.039062 237.222656 339.894531 237.933594 C 340.75 238.636719 341.222656 239.683594 341.191406 240.792969 L 340.632812 259.878906 C 340.585938 261.453125 339.496094 262.828125 337.980469 263.230469 L 314.417969 269.484375 C 314.109375 269.566406 313.800781 269.609375 313.492188 269.609375 " fill-opacity="1" fill-rule="nonzero"/><path fill="#97b690" d="M 358.246094 299.648438 L 310.199219 317.679688 C 309.085938 318.097656 307.84375 318.019531 306.796875 317.460938 L 292.589844 309.957031 C 289.320312 308.234375 289.753906 303.421875 293.273438 302.300781 L 344.453125 286.046875 C 345.503906 285.714844 346.644531 285.808594 347.625 286.316406 L 358.695312 292.046875 C 361.902344 293.703125 361.625 298.378906 358.246094 299.648438 " fill-opacity="1" fill-rule="nonzero"/><g clip-path="url(#id3)"><path fill="#272727" d="M 271.214844 285.804688 C 271.210938 285.023438 271.011719 207.515625 271.214844 204.339844 C 271.386719 201.570312 273.28125 200.503906 273.566406 200.355469 L 369.554688 178.707031 L 369.378906 177.941406 L 273.351562 199.597656 L 273.269531 199.621094 C 273.167969 199.671875 270.636719 200.867188 270.425781 204.289062 C 270.226562 207.488281 270.414062 282.609375 270.425781 285.808594 Z M 368.246094 175.035156 C 367.839844 175.035156 367.425781 175.078125 367.015625 175.171875 L 270.59375 196.652344 C 268.039062 197.222656 266.238281 199.449219 266.222656 202.070312 L 265.636719 283.089844 C 265.621094 284.859375 266.421875 286.492188 267.824219 287.570312 C 269.234375 288.644531 271.015625 288.984375 272.71875 288.511719 L 364.867188 262.769531 C 367.152344 262.125 368.789062 260.109375 368.9375 257.738281 L 373.800781 180.980469 C 373.917969 179.210938 373.207031 177.535156 371.859375 176.378906 C 370.832031 175.5 369.5625 175.035156 368.246094 175.035156 Z M 271.203125 289.511719 C 269.824219 289.511719 268.480469 289.0625 267.347656 288.195312 C 265.742188 286.96875 264.832031 285.105469 264.847656 283.082031 L 265.433594 202.0625 C 265.453125 199.078125 267.507812 196.535156 270.421875 195.882812 L 366.84375 174.398438 C 368.816406 173.960938 370.832031 174.464844 372.375 175.78125 C 373.910156 177.09375 374.71875 179.011719 374.589844 181.03125 L 369.726562 257.785156 C 369.554688 260.492188 367.6875 262.800781 365.078125 263.527344 L 272.933594 289.273438 C 272.359375 289.433594 271.777344 289.511719 271.203125 289.511719 " fill-opacity="1" fill-rule="nonzero"/></g><path fill="#272727" d="M 309.488281 314.546875 L 293.011719 305.699219 L 292.640625 306.394531 L 309.113281 315.242188 Z M 345.484375 286.25 C 345.179688 286.273438 344.871094 286.328125 344.570312 286.421875 L 293.394531 302.679688 C 291.917969 303.144531 290.914062 304.398438 290.777344 305.9375 C 290.640625 307.480469 291.402344 308.886719 292.773438 309.609375 L 306.976562 317.113281 C 307.929688 317.617188 309.054688 317.6875 310.058594 317.308594 L 358.105469 299.277344 C 359.523438 298.746094 360.457031 297.480469 360.546875 295.96875 C 360.636719 294.460938 359.859375 293.089844 358.515625 292.398438 L 347.441406 286.667969 C 346.828125 286.347656 346.15625 286.210938 345.484375 286.25 Z M 309.023438 318.332031 C 308.195312 318.378906 307.359375 318.207031 306.609375 317.8125 L 292.40625 310.308594 C 290.75 309.433594 289.828125 307.734375 289.992188 305.867188 C 290.160156 304.003906 291.371094 302.492188 293.152344 301.925781 L 344.332031 285.671875 C 345.492188 285.304688 346.726562 285.40625 347.804688 285.96875 L 358.875 291.695312 C 360.5 292.535156 361.441406 294.191406 361.335938 296.015625 C 361.226562 297.84375 360.097656 299.375 358.382812 300.015625 L 310.335938 318.050781 C 309.910156 318.207031 309.46875 318.300781 309.023438 318.332031 " fill-opacity="1" fill-rule="nonzero"/><path fill="#97b690" d="M 333.167969 251.324219 L 336.300781 258.042969 C 336.464844 258.398438 336.546875 258.78125 336.546875 259.171875 L 336.546875 294.238281 C 336.546875 295.386719 335.816406 296.40625 334.726562 296.769531 L 324.128906 300.304688 C 322.375 300.890625 320.570312 299.546875 320.625 297.695312 L 321.644531 262.679688 C 321.65625 262.300781 321.585938 261.921875 321.4375 261.570312 L 319 255.753906 C 318.367188 254.238281 319.234375 252.519531 320.828125 252.128906 L 330.125 249.859375 C 331.355469 249.554688 332.628906 250.167969 333.167969 251.324219 " fill-opacity="1" fill-rule="nonzero"/><path fill="#272727" d="M 330.214844 250.242188 L 320.921875 252.511719 C 320.273438 252.667969 319.730469 253.101562 319.429688 253.695312 C 319.128906 254.292969 319.105469 254.984375 319.363281 255.597656 L 321.800781 261.417969 C 321.96875 261.820312 322.050781 262.25 322.039062 262.691406 L 321.019531 297.707031 C 320.996094 298.460938 321.328125 299.148438 321.933594 299.597656 C 322.539062 300.046875 323.296875 300.164062 324.007812 299.929688 L 334.605469 296.390625 C 335.53125 296.082031 336.15625 295.21875 336.15625 294.238281 L 336.15625 259.171875 C 336.15625 258.835938 336.082031 258.511719 335.945312 258.207031 L 332.808594 251.488281 C 332.355469 250.507812 331.265625 249.984375 330.214844 250.242188 Z M 323.277344 300.839844 C 322.632812 300.839844 322 300.628906 321.460938 300.230469 C 320.648438 299.625 320.199219 298.699219 320.230469 297.683594 L 321.25 262.667969 C 321.257812 262.34375 321.199219 262.023438 321.074219 261.722656 L 318.636719 255.902344 C 318.289062 255.078125 318.324219 254.144531 318.726562 253.339844 C 319.128906 252.539062 319.859375 251.957031 320.730469 251.746094 L 330.027344 249.476562 C 331.4375 249.132812 332.910156 249.835938 333.523438 251.15625 L 336.65625 257.875 C 336.847656 258.28125 336.941406 258.71875 336.941406 259.171875 L 336.941406 294.238281 C 336.941406 295.558594 336.105469 296.726562 334.855469 297.140625 L 324.257812 300.679688 C 323.933594 300.785156 323.601562 300.839844 323.277344 300.839844 " fill-opacity="1" fill-rule="nonzero"/></svg>