<svg xmlns="http://www.w3.org/2000/svg" xmlns:xlink="http://www.w3.org/1999/xlink" width="500" zoomAndPan="magnify" viewBox="0 0 375 374.999991" height="500" preserveAspectRatio="xMidYMid meet" version="1.0"><defs><g/><clipPath id="id1"><path d="M 112.5 121 L 172 121 L 172 182 L 112.5 182 Z M 112.5 121 " clip-rule="nonzero"/></clipPath><clipPath id="id2"><path d="M 166 176 L 202 176 L 202 210.78125 L 166 210.78125 Z M 166 176 " clip-rule="nonzero"/></clipPath></defs><rect x="-37.5" width="450" fill="#ffffff" y="-37.499999" height="449.999989" fill-opacity="1"/><rect x="-37.5" width="450" fill="#457d58" y="-37.499999" height="449.999989" fill-opacity="1"/><rect x="-37.5" width="450" fill="#ffffff" y="-37.499999" height="449.999989" fill-opacity="1"/><rect x="-37.5" width="450" fill="#457d58" y="-37.499999" height="449.999989" fill-opacity="1"/><g clip-path="url(#id1)"><path fill="#cbddd1" d="M 142.152344 181.011719 C 125.800781 181.011719 112.5 167.667969 112.5 151.265625 C 112.5 134.863281 125.800781 121.519531 142.152344 121.519531 C 158.503906 121.519531 171.808594 134.863281 171.808594 151.265625 C 171.808594 167.667969 158.503906 181.011719 142.152344 181.011719 Z M 142.152344 126.476562 C 128.527344 126.476562 117.441406 137.597656 117.441406 151.265625 C 117.441406 164.933594 128.527344 176.054688 142.152344 176.054688 C 155.78125 176.054688 166.867188 164.933594 166.867188 151.265625 C 166.867188 137.597656 155.78125 126.476562 142.152344 126.476562 Z M 142.152344 126.476562 " fill-opacity="1" fill-rule="nonzero"/></g><g clip-path="url(#id2)"><path fill="#cbddd1" d="M 184.164062 210.75 C 179.734375 210.75 175.304688 209.058594 171.929688 205.675781 C 165.1875 198.910156 165.1875 187.902344 171.929688 181.136719 C 178.675781 174.371094 189.648438 174.371094 196.394531 181.136719 C 203.136719 187.902344 203.136719 198.910156 196.394531 205.675781 C 193.023438 209.058594 188.59375 210.75 184.164062 210.75 Z M 175.425781 202.171875 C 180.246094 207 188.082031 207 192.898438 202.171875 C 197.714844 197.335938 197.714844 189.472656 192.898438 184.640625 C 188.082031 179.8125 180.242188 179.8125 175.425781 184.640625 C 170.609375 189.476562 170.609375 197.339844 175.425781 202.171875 Z M 175.425781 202.171875 " fill-opacity="1" fill-rule="nonzero"/></g><path fill="#cbddd1" d="M 173.679688 185.367188 C 173.046875 185.367188 172.414062 185.125 171.929688 184.640625 L 159.628906 172.300781 C 158.660156 171.332031 158.660156 169.765625 159.628906 168.796875 C 160.589844 167.824219 162.15625 167.824219 163.121094 168.796875 L 175.425781 181.136719 C 176.390625 182.105469 176.390625 183.671875 175.425781 184.640625 C 174.945312 185.125 174.3125 185.367188 173.679688 185.367188 Z M 173.679688 185.367188 " fill-opacity="1" fill-rule="nonzero"/><path fill="#cbddd1" d="M 184.164062 126.46875 C 179.734375 126.46875 175.304688 124.777344 171.929688 121.394531 C 165.1875 114.628906 165.1875 103.621094 171.929688 96.855469 C 178.675781 90.089844 189.648438 90.089844 196.394531 96.855469 C 203.136719 103.621094 203.136719 114.628906 196.394531 121.394531 C 193.023438 124.777344 188.59375 126.46875 184.164062 126.46875 Z M 184.164062 96.738281 C 181 96.738281 177.835938 97.945312 175.425781 100.359375 C 170.609375 105.195312 170.609375 113.058594 175.425781 117.890625 C 180.246094 122.71875 188.082031 122.71875 192.898438 117.890625 C 197.714844 113.054688 197.714844 105.191406 192.898438 100.359375 C 190.492188 97.945312 187.328125 96.738281 184.164062 96.738281 Z M 184.164062 96.738281 " fill-opacity="1" fill-rule="nonzero"/><path fill="#cbddd1" d="M 243.472656 171.089844 C 239.042969 171.089844 234.613281 169.398438 231.238281 166.015625 C 224.496094 159.25 224.496094 148.242188 231.238281 141.476562 C 237.984375 134.710938 248.957031 134.710938 255.703125 141.476562 C 262.445312 148.242188 262.445312 159.25 255.703125 166.015625 C 252.332031 169.398438 247.898438 171.089844 243.472656 171.089844 Z M 243.472656 141.355469 C 240.308594 141.355469 237.144531 142.5625 234.734375 144.980469 C 229.917969 149.8125 229.917969 157.675781 234.734375 162.507812 C 239.550781 167.339844 247.390625 167.339844 252.207031 162.507812 C 257.023438 157.675781 257.023438 149.8125 252.207031 144.980469 C 249.800781 142.566406 246.636719 141.355469 243.472656 141.355469 Z M 243.472656 141.355469 " fill-opacity="1" fill-rule="nonzero"/><path fill="#cbddd1" d="M 161.375 134.464844 C 160.742188 134.464844 160.109375 134.222656 159.628906 133.738281 C 158.660156 132.769531 158.660156 131.203125 159.628906 130.234375 L 171.929688 117.890625 C 172.894531 116.921875 174.460938 116.921875 175.425781 117.890625 C 176.390625 118.859375 176.390625 120.425781 175.425781 121.398438 L 163.121094 133.738281 C 162.640625 134.222656 162.007812 134.464844 161.375 134.464844 Z M 161.375 134.464844 " fill-opacity="1" fill-rule="nonzero"/><path fill="#cbddd1" d="M 228.644531 156.226562 L 169.335938 156.226562 C 167.972656 156.226562 166.867188 155.113281 166.867188 153.746094 C 166.867188 152.378906 167.972656 151.265625 169.335938 151.265625 L 228.644531 151.265625 C 230.007812 151.265625 231.117188 152.378906 231.117188 153.746094 C 231.117188 155.113281 230.007812 156.226562 228.644531 156.226562 Z M 228.644531 156.226562 " fill-opacity="1" fill-rule="nonzero"/><g fill="#f6f6e9" fill-opacity="1"><g transform="translate(41.332033, 276.559158)"><g><path d="M 21.390625 0.609375 C 14.398438 0.609375 9.253906 -0.828125 5.953125 -3.703125 C 3.035156 -6.242188 1.578125 -9.71875 1.578125 -14.125 C 1.578125 -18.53125 3.035156 -22.003906 5.953125 -24.546875 C 9.253906 -27.421875 14.398438 -28.859375 21.390625 -28.859375 C 25.492188 -28.859375 28.882812 -28.382812 31.5625 -27.4375 C 34.25 -26.5 36.335938 -25.210938 37.828125 -23.578125 C 39.316406 -21.953125 40.300781 -20.085938 40.78125 -17.984375 L 28.296875 -17.984375 C 27.046875 -20.179688 24.742188 -21.28125 21.390625 -21.28125 C 18.523438 -21.28125 16.414062 -20.453125 15.0625 -18.796875 C 13.988281 -17.484375 13.453125 -15.925781 13.453125 -14.125 C 13.453125 -12.320312 13.988281 -10.765625 15.0625 -9.453125 C 16.414062 -7.796875 18.523438 -6.96875 21.390625 -6.96875 C 24.742188 -6.96875 27.046875 -8.070312 28.296875 -10.28125 L 40.78125 -10.28125 C 40.300781 -8.15625 39.316406 -6.273438 37.828125 -4.640625 C 36.335938 -3.015625 34.25 -1.734375 31.5625 -0.796875 C 28.882812 0.140625 25.492188 0.609375 21.390625 0.609375 Z M 21.390625 0.609375 "/></g></g></g><g fill="#f6f6e9" fill-opacity="1"><g transform="translate(83.698951, 276.559158)"><g><path d="M 21.390625 0.609375 C 14.398438 0.609375 9.253906 -0.828125 5.953125 -3.703125 C 3.035156 -6.253906 1.578125 -9.734375 1.578125 -14.140625 C 1.578125 -18.535156 3.035156 -22.003906 5.953125 -24.546875 C 9.253906 -27.429688 14.398438 -28.875 21.390625 -28.875 C 28.390625 -28.875 33.539062 -27.429688 36.84375 -24.546875 C 39.757812 -22.003906 41.21875 -18.535156 41.21875 -14.140625 C 41.21875 -9.734375 39.757812 -6.253906 36.84375 -3.703125 C 33.539062 -0.828125 28.390625 0.609375 21.390625 0.609375 Z M 21.390625 -6.984375 C 24.265625 -6.984375 26.367188 -7.804688 27.703125 -9.453125 C 28.785156 -10.773438 29.328125 -12.335938 29.328125 -14.140625 C 29.328125 -15.941406 28.785156 -17.5 27.703125 -18.8125 C 26.367188 -20.46875 24.265625 -21.296875 21.390625 -21.296875 C 18.523438 -21.296875 16.414062 -20.46875 15.0625 -18.8125 C 13.988281 -17.5 13.453125 -15.941406 13.453125 -14.140625 C 13.453125 -12.335938 13.988281 -10.773438 15.0625 -9.453125 C 16.414062 -7.804688 18.523438 -6.984375 21.390625 -6.984375 Z M 21.390625 -6.984375 "/></g></g></g><g fill="#f6f6e9" fill-opacity="1"><g transform="translate(126.499794, 276.559158)"><g><path d="M 21.390625 0.609375 C 14.398438 0.609375 9.253906 -0.828125 5.953125 -3.703125 C 3.035156 -6.253906 1.578125 -9.734375 1.578125 -14.140625 C 1.578125 -18.535156 3.035156 -22.003906 5.953125 -24.546875 C 9.253906 -27.429688 14.398438 -28.875 21.390625 -28.875 C 28.390625 -28.875 33.539062 -27.429688 36.84375 -24.546875 C 39.757812 -22.003906 41.21875 -18.535156 41.21875 -14.140625 C 41.21875 -9.734375 39.757812 -6.253906 36.84375 -3.703125 C 33.539062 -0.828125 28.390625 0.609375 21.390625 0.609375 Z M 21.390625 -6.984375 C 24.265625 -6.984375 26.367188 -7.804688 27.703125 -9.453125 C 28.785156 -10.773438 29.328125 -12.335938 29.328125 -14.140625 C 29.328125 -15.941406 28.785156 -17.5 27.703125 -18.8125 C 26.367188 -20.46875 24.265625 -21.296875 21.390625 -21.296875 C 18.523438 -21.296875 16.414062 -20.46875 15.0625 -18.8125 C 13.988281 -17.5 13.453125 -15.941406 13.453125 -14.140625 C 13.453125 -12.335938 13.988281 -10.773438 15.0625 -9.453125 C 16.414062 -7.804688 18.523438 -6.984375 21.390625 -6.984375 Z M 21.390625 -6.984375 "/></g></g></g><g fill="#f6f6e9" fill-opacity="1"><g transform="translate(169.300637, 276.559158)"><g><path d="M 15.03125 0 L 3.15625 0 L 3.15625 -28.296875 L 22.46875 -28.296875 C 27.082031 -28.296875 30.804688 -27.953125 33.640625 -27.265625 C 36.472656 -26.578125 38.539062 -25.492188 39.84375 -24.015625 C 41.144531 -22.535156 41.796875 -20.601562 41.796875 -18.21875 C 41.796875 -15.851562 41.144531 -13.929688 39.84375 -12.453125 C 38.539062 -10.972656 36.472656 -9.890625 33.640625 -9.203125 C 30.804688 -8.515625 27.082031 -8.171875 22.46875 -8.171875 L 15.03125 -8.171875 Z M 15.03125 -15.140625 L 21.8125 -15.171875 C 23.707031 -15.171875 25.195312 -15.242188 26.28125 -15.390625 C 27.375 -15.546875 28.179688 -15.757812 28.703125 -16.03125 C 29.222656 -16.3125 29.554688 -16.640625 29.703125 -17.015625 C 29.847656 -17.390625 29.921875 -17.789062 29.921875 -18.21875 C 29.921875 -18.664062 29.847656 -19.078125 29.703125 -19.453125 C 29.554688 -19.828125 29.222656 -20.148438 28.703125 -20.421875 C 28.179688 -20.703125 27.375 -20.914062 26.28125 -21.0625 C 25.195312 -21.21875 23.707031 -21.296875 21.8125 -21.296875 L 15.03125 -21.296875 Z M 15.03125 -15.140625 "/></g></g></g><g fill="#f6f6e9" fill-opacity="1"><g transform="translate(212.67348, 276.559158)"><g><path d="M 37.234375 0 L 3.15625 0 L 3.15625 -28.296875 L 35.671875 -28.296875 L 35.671875 -21.296875 L 15.03125 -21.296875 L 15.03125 -16.859375 L 32.484375 -16.859375 L 32.484375 -11.421875 L 15.03125 -11.421875 L 15.03125 -7 L 37.234375 -7 Z M 37.234375 0 "/></g></g></g><g fill="#f6f6e9" fill-opacity="1"><g transform="translate(251.490085, 276.559158)"><g><path d="M 41.796875 0 L 30.5625 0 C 30.050781 -0.707031 29.691406 -1.613281 29.484375 -2.71875 C 29.296875 -3.570312 29.019531 -4.410156 28.65625 -5.234375 C 28.289062 -6.054688 27.65625 -6.738281 26.75 -7.28125 C 25.851562 -7.832031 24.515625 -8.128906 22.734375 -8.171875 L 15.03125 -8.171875 L 15.03125 0 L 3.15625 0 L 3.15625 -28.296875 L 22.46875 -28.296875 C 27.082031 -28.296875 30.804688 -27.953125 33.640625 -27.265625 C 36.472656 -26.578125 38.539062 -25.492188 39.84375 -24.015625 C 41.144531 -22.535156 41.796875 -20.601562 41.796875 -18.21875 C 41.796875 -16.238281 41.34375 -14.570312 40.4375 -13.21875 C 39.539062 -11.863281 38.117188 -10.789062 36.171875 -10 C 38.046875 -9.21875 39.265625 -8.285156 39.828125 -7.203125 C 40.390625 -6.117188 40.734375 -4.925781 40.859375 -3.625 C 40.992188 -2.46875 41.304688 -1.257812 41.796875 0 Z M 15.03125 -15.140625 L 21.8125 -15.171875 C 23.707031 -15.171875 25.195312 -15.253906 26.28125 -15.421875 C 27.375 -15.585938 28.179688 -15.816406 28.703125 -16.109375 C 29.222656 -16.410156 29.554688 -16.742188 29.703125 -17.109375 C 29.847656 -17.472656 29.921875 -17.84375 29.921875 -18.21875 C 29.921875 -18.601562 29.847656 -18.976562 29.703125 -19.34375 C 29.554688 -19.71875 29.222656 -20.050781 28.703125 -20.34375 C 28.179688 -20.632812 27.375 -20.863281 26.28125 -21.03125 C 25.195312 -21.207031 23.707031 -21.296875 21.8125 -21.296875 L 15.03125 -21.296875 Z M 15.03125 -15.140625 "/></g></g></g><g fill="#f6f6e9" fill-opacity="1"><g transform="translate(294.862916, 276.559158)"><g><path d="M 37.234375 0 L 3.15625 0 L 3.15625 -28.296875 L 35.671875 -28.296875 L 35.671875 -21.296875 L 15.03125 -21.296875 L 15.03125 -16.859375 L 32.484375 -16.859375 L 32.484375 -11.421875 L 15.03125 -11.421875 L 15.03125 -7 L 37.234375 -7 Z M 37.234375 0 "/></g></g></g></svg>